<?xml version="1.0" encoding="UTF-8" standalone="no"?>
<svg
   xmlns:dc="http://purl.org/dc/elements/1.1/"
   xmlns:cc="http://creativecommons.org/ns#"
   xmlns:rdf="http://www.w3.org/1999/02/22-rdf-syntax-ns#"
   xmlns:svg="http://www.w3.org/2000/svg"
   xmlns="http://www.w3.org/2000/svg"
   xmlns:sodipodi="http://sodipodi.sourceforge.net/DTD/sodipodi-0.dtd"
   xmlns:inkscape="http://www.inkscape.org/namespaces/inkscape"
   inkscape:version="1.0 (4035a4fb49, 2020-05-01)"
   sodipodi:docname="arret.svg"
   id="svg10"
   preserveAspectRatio="xMidYMid meet"
   viewBox="0 0 1280.000000 1279.000000"
   height="1279.000000pt"
   width="1280.000000pt"
   version="1.0">
  <defs
     id="defs14" />
  <sodipodi:namedview
     inkscape:current-layer="svg10"
     inkscape:window-maximized="1"
     inkscape:window-y="-8"
     inkscape:window-x="-8"
     inkscape:cy="673.1989"
     inkscape:cx="960.9575"
     inkscape:zoom="0.17622384"
     showgrid="false"
     id="namedview12"
     inkscape:window-height="1017"
     inkscape:window-width="1920"
     inkscape:pageshadow="2"
     inkscape:pageopacity="0"
     guidetolerance="10"
     gridtolerance="10"
     objecttolerance="10"
     borderopacity="1"
     bordercolor="#666666"
     pagecolor="#ffffff" />
  <metadata
     id="metadata2">
Created by potrace 1.15, written by Peter Selinger 2001-2017
<rdf:RDF>
  <cc:Work
     rdf:about="">
    <dc:format>image/svg+xml</dc:format>
    <dc:type
       rdf:resource="http://purl.org/dc/dcmitype/StillImage" />
    <dc:title></dc:title>
  </cc:Work>
</rdf:RDF>
</metadata>
  <g
     style="fill:#ff0000;fill-opacity:1"
     id="g8"
     stroke="none"
     fill="#000000"
     transform="matrix(0.1,0,0,-0.1,0,1279)">
    <path
       style="fill:#ff0000;fill-opacity:1"
       id="path4"
       d="M 1682,11108 0,9425 V 6390 3355 L 1677,1678 3355,0 h 3000 3000 l 1723,1723 1722,1722 v 3001 3000 l -1660,1660 -1661,1659 -637,6 c -350,4 -1726,9 -3057,13 l -2420,6 z m 5197,1262 2405,-9 1553,-1553 1553,-1553 V 6445 3635 L 10778,2023 9165,410 H 6360 3555 L 1983,1982 410,3555 v 2835 2835 l 1577,1577 1578,1578 h 455 c 250,0 1537,-5 2859,-10 z" />
    <path
       style="fill:#ff0000;fill-opacity:1"
       id="path6"
       d="M 2310,10485 850,9025 V 6390 3755 L 2303,2302 3755,850 h 2605 2605 l 1492,1492 1493,1493 v 2605 2605 l -1443,1443 -1442,1442 -2648,8 -2647,7 z" />
  </g>
</svg>
