<?xml version="1.0" encoding="UTF-8" standalone="no"?>
<svg
   xmlns:dc="http://purl.org/dc/elements/1.1/"
   xmlns:cc="http://creativecommons.org/ns#"
   xmlns:rdf="http://www.w3.org/1999/02/22-rdf-syntax-ns#"
   xmlns:svg="http://www.w3.org/2000/svg"
   xmlns="http://www.w3.org/2000/svg"
   xmlns:sodipodi="http://sodipodi.sourceforge.net/DTD/sodipodi-0.dtd"
   xmlns:inkscape="http://www.inkscape.org/namespaces/inkscape"
   inkscape:version="1.0 (4035a4fb49, 2020-05-01)"
   sodipodi:docname="tete.svg"
   xml:space="preserve"
   viewBox="0 0 64 63.999998"
   y="0px"
   x="0px"
   id="Capa_1"
   version="1.1"
   width="64"
   height="63.999996"><metadata
   id="metadata47"><rdf:RDF><cc:Work
       rdf:about=""><dc:format>image/svg+xml</dc:format><dc:type
         rdf:resource="http://purl.org/dc/dcmitype/StillImage" /><dc:title></dc:title></cc:Work></rdf:RDF></metadata><defs
   id="defs45">
	
	
	
	
</defs><sodipodi:namedview
   inkscape:current-layer="Capa_1"
   inkscape:window-maximized="1"
   inkscape:window-y="-8"
   inkscape:window-x="1912"
   inkscape:cy="87.34092"
   inkscape:cx="163.66838"
   inkscape:zoom="3.4345186"
   showguides="false"
   showgrid="false"
   id="namedview43"
   inkscape:window-height="1017"
   inkscape:window-width="1920"
   inkscape:pageshadow="2"
   inkscape:pageopacity="0"
   guidetolerance="10"
   gridtolerance="10"
   objecttolerance="10"
   borderopacity="1"
   bordercolor="#666666"
   pagecolor="#ffffff"
   inkscape:document-rotation="0"
   inkscape:pagecheckerboard="true"
   fit-margin-top="0"
   fit-margin-left="0"
   fit-margin-right="0"
   fit-margin-bottom="0" />
<rect
   style="fill:#646464;fill-opacity:1;stroke:#000000;stroke-width:1.53077;stroke-linecap:round;stroke-linejoin:round;stroke-miterlimit:4;stroke-dasharray:none;stroke-dashoffset:215.56;paint-order:fill markers stroke"
   id="rect868"
   width="62.469231"
   height="62.469227"
   x="0.76538497"
   y="0.76538497"
   rx="10.074636"
   ry="11.322058" /><g
   id="g850"
   transform="matrix(0.17955558,0,0,0.17955558,1.6642401,1.7103798)"><path
     style="fill:#afafaf;fill-opacity:1;stroke:#afafaf;stroke-width:2.8;stroke-miterlimit:4;stroke-dasharray:none;stroke-opacity:1"
     id="path2"
     d="m 175,193.173 c 38.914,0 70.463,-38.318 70.463,-85.586 C 245.463,60.318 235.105,22 175,22 c -60.105,0 -70.465,38.318 -70.465,85.587 0,47.268 31.549,85.586 70.465,85.586 z" /><path
     style="fill:#afafaf;fill-opacity:1;stroke:#afafaf;stroke-width:2.8;stroke-miterlimit:4;stroke-dasharray:none;stroke-opacity:1"
     id="path8"
     d="M 307.935,298.397 C 306.63,216.055 297.876,192.592 215.583,177.74 c 0,0 -13.584,14.761 -40.584,14.761 -27,0 -40.586,-14.761 -40.586,-14.761 -81.395,14.69 -90.803,37.805 -92.303,117.982 -0.123,6.547 -0.18,6.891 -0.202,6.131 0.005,1.424 0.011,4.058 0.011,8.651 0,0 26.180235,1.20188 139.66824,1.20188 113.486,0 126.49176,-1.20188 126.49176,-1.20188 0,-2.951 0.002,-5.003 0.005,-6.399 -0.022,0.47 -0.066,-0.441 -0.149,-5.708 z"
     sodipodi:nodetypes="ccsccccsccc" /></g>
<g
   id="g12">
</g>
<g
   id="g14">
</g>
<g
   id="g16">
</g>
<g
   id="g18">
</g>
<g
   id="g20">
</g>
<g
   id="g22">
</g>
<g
   id="g24">
</g>
<g
   id="g26">
</g>
<g
   id="g28">
</g>
<g
   id="g30">
</g>
<g
   id="g32">
</g>
<g
   id="g34">
</g>
<g
   id="g36">
</g>
<g
   id="g38">
</g>
<g
   id="g40">
</g>
</svg>
