<?xml version="1.0" encoding="UTF-8" standalone="no"?>
<svg
   xmlns:dc="http://purl.org/dc/elements/1.1/"
   xmlns:cc="http://creativecommons.org/ns#"
   xmlns:rdf="http://www.w3.org/1999/02/22-rdf-syntax-ns#"
   xmlns:svg="http://www.w3.org/2000/svg"
   xmlns="http://www.w3.org/2000/svg"
   xmlns:sodipodi="http://sodipodi.sourceforge.net/DTD/sodipodi-0.dtd"
   xmlns:inkscape="http://www.inkscape.org/namespaces/inkscape"
   sodipodi:docname="citation.svg"
   inkscape:version="1.0 (4035a4fb49, 2020-05-01)"
   id="svg963"
   version="1.1"
   viewBox="0 0 25.582296 16.933332"
   height="16.933332mm"
   width="25.582296mm">
  <defs
     id="defs957">
    <rect
       x="40.065475"
       y="27.214287"
       width="237.36905"
       height="136.82738"
       id="rect842" />
  </defs>
  <sodipodi:namedview
     inkscape:window-maximized="1"
     inkscape:window-y="-8"
     inkscape:window-x="1912"
     inkscape:window-height="1017"
     inkscape:window-width="1920"
     showgrid="false"
     inkscape:document-rotation="0"
     inkscape:current-layer="layer1"
     inkscape:document-units="mm"
     inkscape:cy="112.39878"
     inkscape:cx="251.74082"
     inkscape:zoom="1.979899"
     inkscape:pageshadow="2"
     inkscape:pageopacity="0.0"
     borderopacity="1.0"
     bordercolor="#666666"
     pagecolor="#ffffff"
     id="base"
     fit-margin-top="0"
     fit-margin-left="0"
     fit-margin-right="0"
     fit-margin-bottom="0"
     inkscape:pagecheckerboard="true" />
  <metadata
     id="metadata960">
    <rdf:RDF>
      <cc:Work
         rdf:about="">
        <dc:format>image/svg+xml</dc:format>
        <dc:type
           rdf:resource="http://purl.org/dc/dcmitype/StillImage" />
        <dc:title></dc:title>
      </cc:Work>
    </rdf:RDF>
  </metadata>
  <g
     transform="translate(0.01229253,0.04202022)"
     id="layer1"
     inkscape:groupmode="layer"
     inkscape:label="Calque 1">
    <g
       transform="matrix(0.26435885,0,0,0.26435885,-0.00904289,-0.0309118)"
       id="g851">
      <rect
         ry="0"
         rx="0"
         y="0.00054172688"
         x="0.030315399"
         height="63.939877"
         width="96.685883"
         id="rect838"
         style="fill:#afafaf;fill-opacity:1;stroke:#afafaf;stroke-width:0.0851239;stroke-linecap:round;stroke-linejoin:round;stroke-dashoffset:215.56;stroke-opacity:1;paint-order:fill markers stroke" />
      <g
         style="fill:#000000;fill-opacity:1;stroke:#afafaf;stroke-opacity:1"
         id="g1566"
         transform="matrix(0.69810903,0,0,0.69810903,-4.9282186,-6.5248301)">
        <g
           style="fill:#000000;fill-opacity:1;stroke:#afafaf;stroke-opacity:1"
           transform="matrix(0.35277777,0,0,0.35277777,-147.86808,5.1130833)"
           id="g955">
          <path
             d="m 454,14.6 c -9,5.1 -13.8,11.9 -14.7,20.8 -1,9.9 3.6,17.6 11.5,19.2 4.1,0.8 9.5,-2 11.8,-6.1 1.5,-2.9 1.6,-3.9 0.5,-7.5 -2,-6.7 -7.5,-9.1 -14.5,-6.4 -1.7,0.7 -1.9,0.4 -1.3,-3.5 0.7,-5.6 4.7,-11.5 9.7,-14.3 3.8,-2.2 5.3,-4.8 2.8,-4.8 -0.7,0 -3.3,1.2 -5.8,2.6 z"
             id="path8"
             style="fill:#000000;fill-opacity:1;stroke:#afafaf;stroke-width:0.1;stroke-opacity:1" />
          <path
             d="m 486,14.2 c -13.7,6.8 -19.9,23.2 -13,34.3 2.1,3.4 7.3,6.5 11,6.5 5.4,0 11,-5.7 11,-11.2 0,-6.4 -7.3,-12 -12.9,-10 -3.6,1.3 -4.6,0.3 -3.6,-3.6 1.3,-5.3 5.5,-11.1 10,-13.8 7.5,-4.3 5.4,-6.1 -2.5,-2.2 z"
             id="path10"
             style="fill:#000000;fill-opacity:1;stroke:#afafaf;stroke-width:0.1;stroke-opacity:1" />
          <path
             d="m 504.2,30.2 c -0.7,0.7 -1.2,1.9 -1.2,2.8 0,0.9 0.5,2.1 1.2,2.8 0.9,0.9 36.7,1.2 155,1.2 H 813 v 89.4 c 0,86 0.1,89.5 1.9,91.7 1.6,2.1 2.2,2.2 4.5,1.1 L 822,218 V 123.5 29 H 663.7 c -121.8,0 -158.6,0.3 -159.5,1.2 z"
             id="path18"
             style="fill:#000000;fill-opacity:1;stroke:#afafaf;stroke-width:0.1;stroke-opacity:1" />
          <path
             d="m 448.2,66.2 c -0.9,0.9 -1.2,23.7 -1.2,96.5 V 258 h 160.3 c 123.3,0 160.6,-0.3 161.5,-1.2 0.7,-0.7 1.2,-2.1 1.2,-3.3 0,-1.2 -0.5,-2.6 -1.2,-3.3 -0.9,-0.9 -37.2,-1.2 -157,-1.2 H 456 v -90.1 c 0,-60.1 -0.3,-90.7 -1,-92 -1.2,-2.1 -5,-2.5 -6.8,-0.7 z"
             id="path24"
             style="fill:#000000;fill-opacity:1;stroke:#afafaf;stroke-width:0.1;stroke-opacity:1" />
          <path
             d="m 781.2,230.6 c -6,4.2 -6.5,12.3 -1,16.9 2.7,2.3 3.9,2.6 7.6,2.2 l 4.4,-0.5 -0.5,4.4 c -0.6,5.4 -4.4,10.7 -9.8,13.4 -2.1,1.1 -3.9,2.7 -3.9,3.5 0,2 0.2,1.9 5.9,-0.9 6.6,-3.4 10.7,-7 13.7,-12.1 7.2,-12.3 1.5,-28.5 -10,-28.5 -2.3,0 -5.2,0.7 -6.4,1.6 z"
             id="path32"
             style="fill:#000000;fill-opacity:1;stroke:#afafaf;stroke-width:0.1;stroke-opacity:1" />
          <path
             d="m 812.4,230.9 c -3.6,2.2 -5.8,7.5 -4.8,11.5 0.3,1.4 2,3.8 3.7,5.2 2.6,2.2 3.8,2.5 7.4,2.1 4.8,-0.5 5.3,0.2 4.2,5.2 -0.9,4.1 -5.3,9.7 -9.4,11.9 -6.6,3.7 -5.3,6.1 1.5,2.7 10.7,-5.4 17,-14.2 17,-23.8 0,-12.8 -10.2,-20.5 -19.6,-14.8 z"
             id="path34"
             style="fill:#000000;fill-opacity:1;stroke:#afafaf;stroke-width:0.1;stroke-opacity:1" />
        </g>
      </g>
      <text
         style="font-style:normal;font-variant:normal;font-weight:normal;font-stretch:normal;font-size:7.05556px;line-height:1.25;font-family:'Source Serif Pro';-inkscape-font-specification:'Source Serif Pro, Normal';font-variant-ligatures:normal;font-variant-caps:normal;font-variant-numeric:normal;font-feature-settings:normal;text-align:start;letter-spacing:0px;word-spacing:0px;writing-mode:lr-tb;white-space:pre;shape-inside:url(#rect842);fill:#000000;fill-opacity:1;stroke:none;"
         id="text840"
         xml:space="preserve" />
    </g>
  </g>
</svg>
