<?xml version="1.0" encoding="UTF-8" standalone="no"?>
<!-- Created with Inkscape (http://www.inkscape.org/) -->

<svg
   xmlns:dc="http://purl.org/dc/elements/1.1/"
   xmlns:cc="http://creativecommons.org/ns#"
   xmlns:rdf="http://www.w3.org/1999/02/22-rdf-syntax-ns#"
   xmlns:svg="http://www.w3.org/2000/svg"
   xmlns="http://www.w3.org/2000/svg"
   xmlns:sodipodi="http://sodipodi.sourceforge.net/DTD/sodipodi-0.dtd"
   xmlns:inkscape="http://www.inkscape.org/namespaces/inkscape"
   width="52.768394mm"
   height="64mm"
   viewBox="0 0 52.768396 64.000001"
   version="1.1"
   id="svg858"
   inkscape:version="0.92.4 (5da689c313, 2019-01-14)"
   sodipodi:docname="familleConjointe.svg">
  <defs
     id="defs852" />
  <sodipodi:namedview
     id="base"
     pagecolor="#ffffff"
     bordercolor="#666666"
     borderopacity="1.0"
     inkscape:pageopacity="0.0"
     inkscape:pageshadow="2"
     inkscape:zoom="0.35"
     inkscape:cx="-642.85714"
     inkscape:cy="560.00004"
     inkscape:document-units="mm"
     inkscape:current-layer="layer1"
     showgrid="false"
     fit-margin-top="0"
     fit-margin-left="0"
     fit-margin-right="0"
     fit-margin-bottom="0"
     inkscape:window-width="1920"
     inkscape:window-height="1017"
     inkscape:window-x="1912"
     inkscape:window-y="-8"
     inkscape:window-maximized="1" />
  <metadata
     id="metadata855">
    <rdf:RDF>
      <cc:Work
         rdf:about="">
        <dc:format>image/svg+xml</dc:format>
        <dc:type
           rdf:resource="http://purl.org/dc/dcmitype/StillImage" />
        <dc:title></dc:title>
      </cc:Work>
    </rdf:RDF>
  </metadata>
  <g
     inkscape:label="Calque 1"
     inkscape:groupmode="layer"
     id="layer1"
     transform="translate(-1.3466443e-7,-233)">
    <g
       transform="matrix(0.11407773,0,0,0.11407773,-5.6155617,233)"
       id="g18">
      <g
         id="g16">
        <path
           inkscape:connector-curvature="0"
           d="m 145.98,561.021 c 9.061,0 17.103,-4.346 22.161,-11.068 -0.688,-2.332 -1.061,-4.738 -1.061,-7.195 l 0.004,-92.498 h -22.553 c -2.926,0 -5.589,-1.305 -7.306,-3.572 -1.764,-2.338 -2.333,-5.459 -1.511,-8.352 l 15.926,-52.398 c -3.208,1.865 -6.928,2.908 -10.858,2.908 -2.142,0 -4.27,-0.32 -6.331,-0.953 -11.375,-3.484 -17.791,-15.576 -14.301,-26.951 0.177,-0.568 20.521,-67.014 20.837,-68.051 1.205,-4.184 12.88,-41.665 43.834,-41.665 h 6.349 c -3.06,-2.534 -5.713,-5.542 -7.832,-8.922 -1.521,1.793 -3.729,2.816 -6.082,2.816 h -0.483 l -0.531,-0.062 c -6.177,-0.746 -9.151,-7.038 -14.076,-17.456 -0.512,-1.085 -1.028,-2.176 -1.54,-3.242 l -0.315,-0.65 c -0.698,-1.439 -1.563,-3.228 -2.084,-4.805 -2.501,-7.636 -1.602,-16.428 2.295,-22.41 3.146,-4.834 8.099,-7.812 13.947,-8.391 0.75,-0.077 1.535,-0.115 2.31,-0.115 5.058,0 10.447,1.587 16.055,4.724 6.326,-4.657 14.019,-7.196 21.956,-7.196 5.809,0 11.446,1.373 16.534,3.911 l -7.798,-25.522 c -0.339,-1.229 0.406,-2.314 1.688,-2.295 h 0.009 c 0,0 4.322,0 4.528,0 2.247,0 3.204,1.836 3.395,2.281 0,0 3.419,11.155 8.315,27.139 4.417,-2.018 8.683,-3.041 12.747,-3.041 0.774,0 1.549,0.038 2.305,0.11 5.843,0.579 10.796,3.562 13.942,8.391 3.897,5.981 4.796,14.774 2.295,22.405 -0.488,1.497 -1.263,3.123 -2.142,4.939 l -0.258,0.53 c -0.512,1.062 -1.028,2.157 -1.54,3.242 -4.045,8.563 -6.78,14.33 -11.073,16.524 1.133,3.701 2.256,7.363 3.352,10.935 4.748,2.353 9.065,5.766 12.9,10.217 7.851,-13.014 22.663,-22.208 38.828,-22.208 h 10.28 c 0.205,-2.051 0.411,-4.122 0.616,-6.197 -3.806,-5.848 -6.029,-12.813 -6.029,-20.296 0,-9.921 3.911,-19.216 10.634,-26.077 1.487,-14.989 2.524,-25.432 2.524,-25.432 0,-1.233 0.999,-2.233 2.233,-2.233 h 4.552 c 1.233,0 2.232,1 2.232,2.233 0,0 0,4.485 0,12.46 l 15.113,-20.622 v 18.197 l 10.768,-17.949 v 17.695 l 11.461,-17.949 2.247,31.537 c 8.09,7.047 12.818,17.284 12.818,28.128 0,10.351 -4.241,19.727 -11.073,26.493 h 15.854 c 23.863,0 44.791,19.942 44.791,42.682 v 99.148 c 0,12.102 -9.648,21.584 -21.96,21.584 -6.063,0 -11.547,-2.42 -15.539,-6.312 0,61 0,133.072 0,133.096 0,15.305 12.407,27.713 27.712,27.713 15.305,0 27.712,-12.408 27.712,-27.713 0,-0.043 0,-368.199 0,-368.199 0,-1.233 0.999,-2.233 2.232,-2.233 h 4.552 c 1.234,0 2.233,1 2.233,2.233 0,0 0.019,131.226 0.028,131.232 0.01,11.861 9.63,21.477 21.492,21.477 11.867,0 21.491,-9.625 21.491,-21.492 0,-0.066 0,-147.559 0,-149.318 0,-29.415 -22.625,-52.035 -50.905,-52.035 -0.723,0 -38.733,0 -56.558,0 0,0 -3.572,0 -9.051,0 -17.83,0 -55.841,0 -56.558,0 -28.281,0 -48.262,21.583 -50.906,52.035 -0.048,0.569 -1.439,16.495 -3.289,37.748 -5.972,-19.512 -10.375,-33.899 -10.375,-33.899 -4.911,-17.064 -14.287,-55.921 -50.528,-55.921 h -90.6 c -33.77,0 -45.728,38.857 -50.643,55.921 -0.105,0.363 -32.187,105.116 -32.202,105.159 -3.48,11.351 2.897,23.371 14.248,26.852 11.346,3.477 23.356,-2.893 26.842,-14.234 0.009,0 32.125,-104.704 32.125,-104.704 0.187,-0.445 1.147,-2.281 3.395,-2.281 0.201,0 4.528,0 4.528,0 h 0.01 c 1.276,-0.019 2.027,1.066 1.688,2.295 L 68.725,374.291 c -0.349,1.229 0,3.371 2.238,3.371 h 45.102 c 1.276,0 2.214,1.037 2.214,2.314 0,0 -0.01,153.275 -0.01,153.328 -0.001,15.311 12.406,27.717 27.711,27.717 z"
           id="path2" />
        <circle
           cx="399.797"
           cy="41.280998"
           r="41.243"
           id="circle4" />
        <circle
           cx="176.375"
           cy="41.243"
           r="41.243"
           id="circle6" />
        <path
           inkscape:connector-curvature="0"
           d="m 257.159,442.6 h 27.669 c 1.449,-0.004 1.674,-1.391 1.449,-2.184 l -12.518,-41.125 c -3.51,-3.824 -5.666,-8.859 -5.666,-14.396 v -4.207 l -23.352,-76.701 c -0.22,-0.793 0.172,-1.496 1,-1.486 0,0 6.144,0 6.273,0 1.453,0 2.075,1.191 2.199,1.479 0,0 7.846,25.541 13.885,45.172 v -63.398 c 0,-4.408 0.793,-8.712 2.233,-12.786 -4.107,-5.575 -9.553,-10.423 -16.691,-12.699 -2.759,-0.88 -5.761,-1.387 -9.051,-1.387 h -59.775 c -21.865,0 -33.32,25.158 -36.5,36.213 -0.067,0.234 -20.841,68.066 -20.851,68.09 -2.252,7.35 1.879,15.133 9.223,17.385 7.344,2.252 15.128,-1.875 17.38,-9.219 0.005,0 20.641,-67.371 20.641,-67.371 0.124,-0.287 0.746,-1.479 2.199,-1.479 0.129,0 6.541,0 6.541,0 0.827,-0.014 1.31,0.689 1.095,1.486 l -41.468,136.43 c -0.225,0.793 0,2.18 1.449,2.18 H 173.3 c 0.827,0 1.435,0.67 1.435,1.496 0,0 -0.005,98.623 -0.005,98.662 0,2.586 0.56,5.043 1.544,7.268 2.367,3.795 5.613,6.984 9.452,9.285 2.137,0.898 4.48,1.395 6.947,1.395 9.912,0 17.944,-8.031 17.944,-17.943 l 0.004,-98.66 c 0,-0.828 0.669,-1.498 1.497,-1.498 0,0 5.532,0 6.192,0 0.655,0 1.521,0.67 1.521,1.498 l 0.005,98.66 c 0,3.461 0.994,6.684 2.696,9.424 3.165,5.107 8.802,8.52 15.252,8.52 9.912,0 17.944,-8.031 17.944,-17.943 0,-0.033 -0.005,-98.66 -0.005,-98.66 0.006,-0.826 0.609,-1.501 1.436,-1.501 z"
           id="path8" />
        <path
           inkscape:connector-curvature="0"
           d="m 253.778,237.437 c 2.343,-0.272 6.043,-8.898 9.658,-16.409 0.593,-1.229 1.592,-3.218 2.022,-4.528 2.649,-8.071 0.464,-19.78 -9.72,-20.789 -6.173,-0.617 -12.599,2.634 -17.122,5.68 -1.143,0.77 -2.768,0.607 -3.768,-0.33 -5.259,-4.896 -12.312,-7.898 -20.067,-7.898 -7.458,0 -14.267,2.778 -19.45,7.349 -1.033,0.899 -2.692,1.066 -3.844,0.316 -4.461,-2.864 -10.466,-5.7 -16.266,-5.116 -10.184,1.014 -12.369,12.723 -9.72,20.793 0.43,1.306 1.43,3.285 2.022,4.528 3.615,7.511 7.315,16.132 9.677,16.418 2.353,0.296 -5.183,-17.815 0.229,-23.461 0.947,-0.99 3.185,-1.473 4.557,-1.353 0.679,0.052 1.473,0.177 2.353,0.382 1.329,0.33 2.008,1.822 1.711,3.165 -0.464,2.075 -0.703,4.227 -0.703,6.445 0,16.266 13.191,29.458 29.457,29.458 16.266,0 29.458,-13.192 29.458,-29.458 0,-2.008 -0.21,-3.973 -0.593,-5.876 -0.273,-1.339 0.396,-2.921 1.692,-3.361 1.406,-0.474 2.649,-0.679 3.634,-0.77 1.363,-0.11 3.605,0.364 4.557,1.354 5.409,5.646 -2.135,23.762 0.226,23.461 z"
           id="path10" />
        <path
           inkscape:connector-curvature="0"
           d="m 331.98,560.701 c 10.165,0 18.37,-8.18 18.37,-18.346 0,-0.027 0,-144.34 0,-144.34 0,-1.047 0.482,-1.488 1.521,-1.488 h 6.077 c 1.032,0 1.587,0.441 1.587,1.488 0,0 0.024,143.986 0.024,144.34 0,10.166 8.295,18.346 18.455,18.346 10.16,0 18.255,-8.279 18.255,-18.439 0,-0.029 0,-244.127 0,-244.127 0,-0.818 0.665,-1.482 1.482,-1.482 h 6.264 c 0.817,0 1.458,0.664 1.458,1.482 0,0 -0.029,86.775 -0.024,86.775 0.005,7.879 6.522,13.918 14.401,13.918 7.885,0 14.306,-6.043 14.306,-13.928 0,-0.043 0,-97.982 0,-99.148 0,-19.527 -18.355,-35.023 -37.131,-35.023 -0.479,0 -83.754,0 -84.231,0 -18.776,0 -37.05,15.496 -37.05,35.023 0,1.166 0,99.105 0,99.148 0,7.885 6.502,13.928 14.382,13.928 7.879,0 14.311,-6.039 14.319,-13.918 l -0.019,-86.775 c 0,-0.818 0.646,-1.482 1.463,-1.482 h 6.168 c 0.817,0 1.568,0.664 1.568,1.482 0,0 -0.02,244.102 -0.02,244.127 0.011,10.16 8.215,18.439 18.375,18.439 z"
           id="path12" />
        <path
           inkscape:connector-curvature="0"
           d="m 341.127,190.361 c -9.4,4.968 -15.808,14.841 -15.808,26.211 0,16.366 13.269,29.639 29.64,29.639 16.366,0 29.639,-13.268 29.639,-29.639 0,-10.122 -5.073,-19.049 -12.813,-24.399 v -17.356 l -7.99,13.455 c -0.875,-0.272 -1.764,-0.502 -2.668,-0.693 v -12.761 l -7.286,12.145 c -1.181,0.043 -2.343,0.153 -3.48,0.33 v -12.474 z"
           id="path14" />
      </g>
    </g>
  </g>
</svg>
