<?xml version="1.0" encoding="UTF-8" standalone="no"?>
<!-- Created with Inkscape (http://www.inkscape.org/) -->

<svg
   xmlns:dc="http://purl.org/dc/elements/1.1/"
   xmlns:cc="http://creativecommons.org/ns#"
   xmlns:rdf="http://www.w3.org/1999/02/22-rdf-syntax-ns#"
   xmlns:svg="http://www.w3.org/2000/svg"
   xmlns="http://www.w3.org/2000/svg"
   xmlns:sodipodi="http://sodipodi.sourceforge.net/DTD/sodipodi-0.dtd"
   xmlns:inkscape="http://www.inkscape.org/namespaces/inkscape"
   width="64mm"
   height="64mm"
   viewBox="0 0 64 64"
   version="1.1"
   id="svg1406"
   inkscape:version="0.92.4 (5da689c313, 2019-01-14)"
   sodipodi:docname="female.svg"
   inkscape:export-filename="C:\Users\dapam\Documents\C\Csharp\source\repos\dapam873\GH\GH\bin\Debug\images\female.png"
   inkscape:export-xdpi="22"
   inkscape:export-ydpi="22">
  <defs
     id="defs1400" />
  <sodipodi:namedview
     id="base"
     pagecolor="#ffffff"
     bordercolor="#666666"
     borderopacity="1.0"
     inkscape:pageopacity="0.0"
     inkscape:pageshadow="2"
     inkscape:zoom="0.35"
     inkscape:cx="-726.55651"
     inkscape:cy="560"
     inkscape:document-units="mm"
     inkscape:current-layer="layer1"
     showgrid="false"
     fit-margin-top="0"
     fit-margin-left="0"
     fit-margin-right="0"
     fit-margin-bottom="0"
     inkscape:window-width="1920"
     inkscape:window-height="1017"
     inkscape:window-x="-8"
     inkscape:window-y="-8"
     inkscape:window-maximized="1" />
  <metadata
     id="metadata1403">
    <rdf:RDF>
      <cc:Work
         rdf:about="">
        <dc:format>image/svg+xml</dc:format>
        <dc:type
           rdf:resource="http://purl.org/dc/dcmitype/StillImage" />
        <dc:title />
      </cc:Work>
    </rdf:RDF>
  </metadata>
  <g
     inkscape:label="Calque 1"
     inkscape:groupmode="layer"
     id="layer1"
     transform="translate(0,-233)">
    <path
       inkscape:connector-curvature="0"
       style="fill:#000000;stroke:none;stroke-width:0.21790551"
       d="M 49.614677,250.61467 C 49.614677,240.88466 41.730011,233 31.999997,233 c -9.730007,0 -17.614674,7.88466 -17.614674,17.61467 0,8.72346 6.458717,16.18872 15.098292,17.44691 v 11.32373 H 16.901706 v 5.03276 H 29.483615 V 297 h 5.032767 v -12.58193 h 12.581907 v -5.03276 H 34.516382 v -11.32373 c 8.639578,-1.25819 15.098295,-8.72345 15.098295,-17.44691 z m -5.032768,0 c 0,6.96199 -5.619923,12.58191 -12.581912,12.58191 -6.961988,0 -12.581907,-5.61992 -12.581907,-12.58191 0,-6.96199 5.619919,-12.58191 12.581907,-12.58191 6.961989,0 12.581913,5.61992 12.581912,12.58191 z"
       id="path2823-1-1" />
  </g>
</svg>
