<?xml version="1.0" encoding="UTF-8" standalone="no"?>
<svg
   xmlns:dc="http://purl.org/dc/elements/1.1/"
   xmlns:cc="http://creativecommons.org/ns#"
   xmlns:rdf="http://www.w3.org/1999/02/22-rdf-syntax-ns#"
   xmlns:svg="http://www.w3.org/2000/svg"
   xmlns="http://www.w3.org/2000/svg"
   xmlns:sodipodi="http://sodipodi.sourceforge.net/DTD/sodipodi-0.dtd"
   xmlns:inkscape="http://www.inkscape.org/namespaces/inkscape"
   height="64"
   viewBox="0 0 91.323105 64"
   width="91.323105"
   version="1.1"
   id="svg16"
   sodipodi:docname="ficheNoir.svg"
   inkscape:version="0.92.4 (5da689c313, 2019-01-14)"
   style="fill:none">
  <metadata
     id="metadata22">
    <rdf:RDF>
      <cc:Work
         rdf:about="">
        <dc:format>image/svg+xml</dc:format>
        <dc:type
           rdf:resource="http://purl.org/dc/dcmitype/StillImage" />
        <dc:title></dc:title>
      </cc:Work>
    </rdf:RDF>
  </metadata>
  <defs
     id="defs20" />
  <sodipodi:namedview
     pagecolor="#ffffff"
     bordercolor="#666666"
     borderopacity="1"
     objecttolerance="10"
     gridtolerance="10"
     guidetolerance="10"
     inkscape:pageopacity="0"
     inkscape:pageshadow="2"
     inkscape:window-width="1920"
     inkscape:window-height="1017"
     id="namedview18"
     showgrid="false"
     inkscape:zoom="3.2091769"
     inkscape:cx="-1.1059322"
     inkscape:cy="17.406781"
     inkscape:window-x="1912"
     inkscape:window-y="-8"
     inkscape:window-maximized="1"
     inkscape:current-layer="svg16"
     fit-margin-top="0"
     fit-margin-left="0"
     fit-margin-right="0"
     fit-margin-bottom="0" />
  <g
     id="g825"
     transform="matrix(2.4615385,0,0,2.4615385,-0.98459078,0)">
    <path
       style="fill:#ffffff;fill-opacity:1;stroke:#000000;stroke-width:2;stroke-miterlimit:10;stroke-opacity:1"
       id="path2"
       stroke-miterlimit="10"
       d="M 32.8,25 H 5.10001 c -2,0 -3.70002,-1.7 -3.70002,-3.7 V 4.70001 C 1.39999,2.70001 3.10001,1 5.10001,1 H 32.8 c 2,0 3.7,1.70001 3.7,3.70001 V 21.3 c 0,2 -1.6,3.7 -3.7,3.7 z"
       inkscape:connector-curvature="0" />
    <path
       style="stroke:#000000;stroke-width:2;stroke-miterlimit:10;stroke-opacity:1"
       id="path4"
       stroke-miterlimit="10"
       d="m 11.6,11.3 c 1.6569,0 3,-1.2984 3,-2.90001 C 14.6,6.79837 13.2569,5.5 11.6,5.5 9.94315,5.5 8.60001,6.79837 8.60001,8.39999 8.60001,10.0016 9.94315,11.3 11.6,11.3 Z"
       inkscape:connector-curvature="0" />
    <path
       style="stroke:#000000;stroke-width:2;stroke-miterlimit:10;stroke-opacity:1"
       id="path6"
       stroke-miterlimit="10"
       d="M 15.6,20.4 H 7.60001 c -0.8,0 -1.5,-0.7 -1.5,-1.5 v -2.6 c 0,-2.1 1.69998,-3.8 3.79998,-3.8 H 13.3 c 2.1,0 3.8,1.7 3.8,3.8 v 2.6 c 0.1,0.8 -0.6,1.5 -1.5,1.5 z"
       inkscape:connector-curvature="0" />
    <path
       style="stroke:#000000;stroke-width:2;stroke-linecap:round;stroke-miterlimit:10;stroke-opacity:1"
       id="path8"
       stroke-miterlimit="10"
       d="M 21.8,7.5 H 31.9"
       inkscape:connector-curvature="0" />
    <path
       style="stroke:#000000;stroke-width:2;stroke-linecap:round;stroke-miterlimit:10;stroke-opacity:1"
       id="path10"
       stroke-miterlimit="10"
       d="M 21.8,11.2 H 31.9"
       inkscape:connector-curvature="0" />
    <path
       style="stroke:#000000;stroke-width:2;stroke-linecap:round;stroke-miterlimit:10;stroke-opacity:1"
       id="path12"
       stroke-miterlimit="10"
       d="M 21.8,14.8 H 31.9"
       inkscape:connector-curvature="0" />
    <path
       style="stroke:#000000;stroke-width:2;stroke-linecap:round;stroke-miterlimit:10;stroke-opacity:1"
       id="path14"
       stroke-miterlimit="10"
       d="M 21.8,18.5 H 31.9"
       inkscape:connector-curvature="0" />
  </g>
</svg>
