<?xml version="1.0" encoding="UTF-8" standalone="no"?>
<svg
   xmlns:dc="http://purl.org/dc/elements/1.1/"
   xmlns:cc="http://creativecommons.org/ns#"
   xmlns:rdf="http://www.w3.org/1999/02/22-rdf-syntax-ns#"
   xmlns:svg="http://www.w3.org/2000/svg"
   xmlns="http://www.w3.org/2000/svg"
   xmlns:sodipodi="http://sodipodi.sourceforge.net/DTD/sodipodi-0.dtd"
   xmlns:inkscape="http://www.inkscape.org/namespaces/inkscape"
   inkscape:version="1.0 (4035a4fb49, 2020-05-01)"
   sodipodi:docname="note2.svg"
   xml:space="preserve"
   viewBox="0 0 48.872749 64"
   y="0px"
   x="0px"
   id="Layer_1"
   version="1.1"
   width="48.872749"
   height="64"><metadata
   id="metadata97"><rdf:RDF><cc:Work
       rdf:about=""><dc:format>image/svg+xml</dc:format><dc:type
         rdf:resource="http://purl.org/dc/dcmitype/StillImage" /><dc:title></dc:title></cc:Work></rdf:RDF></metadata><defs
   id="defs95" /><sodipodi:namedview
   inkscape:current-layer="Layer_1"
   inkscape:window-maximized="1"
   inkscape:window-y="-8"
   inkscape:window-x="1912"
   inkscape:cy="38.896799"
   inkscape:cx="68.789823"
   inkscape:zoom="4.6956308"
   showgrid="false"
   id="namedview93"
   inkscape:window-height="1017"
   inkscape:window-width="1920"
   inkscape:pageshadow="2"
   inkscape:pageopacity="0"
   guidetolerance="10"
   gridtolerance="10"
   objecttolerance="10"
   borderopacity="1"
   bordercolor="#666666"
   pagecolor="#ffffff"
   inkscape:document-rotation="0"
   fit-margin-top="0"
   fit-margin-left="0"
   fit-margin-right="0"
   fit-margin-bottom="0" />

<circle
   r="2.8750131"
   cy="4.7916884"
   cx="24.597334"
   id="path1123"
   style="fill:#afafaf;fill-opacity:1;stroke:#afafaf;stroke-width:1.662;stroke-linecap:round;stroke-linejoin:round;stroke-miterlimit:4;stroke-dasharray:none;stroke-dashoffset:215.56;paint-order:markers stroke fill" /><rect
   rx="6.0235314"
   ry="7.5294123"
   y="5.2579145"
   x="1.2067961"
   height="57.018322"
   width="46.735352"
   id="rect1121"
   style="fill:#afafaf;fill-opacity:1;stroke:#afafaf;stroke-width:0.869592;stroke-linecap:round;stroke-linejoin:round;stroke-miterlimit:4;stroke-dasharray:none;stroke-dashoffset:215.56;paint-order:markers stroke fill" /><g
   style="fill:#000000;fill-opacity:1"
   id="g12"
   transform="matrix(0.125,0,0,0.125,-7.563625,0)">
	<g
   style="fill:#000000;fill-opacity:1"
   id="g10">
		<path
   style="fill:#000000;fill-opacity:1"
   id="path8"
   d="M 405.955,27.927 H 292.975 C 288.825,11.636 274.276,0 256.964,0 239.651,0 225.102,11.636 220.952,27.927 H 108.091 c -25.704,0 -47.582,20.285 -47.582,45.989 v 390.845 c 0,25.705 21.845,47.239 47.509,47.239 h 297.891 c 25.664,0 45.582,-21.534 45.582,-47.239 V 73.916 c 0,-25.704 -19.895,-45.989 -45.536,-45.989 z M 256.964,17.993 c 9.567,0 17.461,7.251 18.495,16.547 -0.152,0.668 -0.25,1.358 -0.25,2.071 0,0.716 0.098,1.405 0.25,2.073 -1.034,9.295 -8.928,16.545 -18.495,16.545 -10.268,0 -18.618,-8.35 -18.618,-18.618 0,-10.268 8.35,-18.618 18.618,-18.618 z m 175.909,446.768 c 0,15.437 -11.564,28.621 -26.964,28.621 H 108.018 c -15.4,0 -28.891,-13.184 -28.891,-28.621 V 73.916 c 0,-15.436 13.523,-27.37 28.964,-27.37 h 112.861 c 0.855,2.327 2.14,4.655 3.814,9.309 h -42.275 c -5.141,0 -9.309,4.168 -9.309,9.309 0,5.141 4.168,9.309 9.309,9.309 h 148.945 c 5.141,0 9.309,-4.168 9.309,-9.309 0,-5.141 -4.168,-9.309 -9.309,-9.309 h -42.275 c 1.674,-4.655 2.958,-6.982 3.814,-9.309 h 112.979 c 15.373,0 26.918,11.934 26.918,27.37 v 390.845 z" />
	</g>
</g>








<g
   id="g62"
   transform="translate(-60.509)">
</g>
<g
   id="g64"
   transform="translate(-60.509)">
</g>
<g
   id="g66"
   transform="translate(-60.509)">
</g>
<g
   id="g68"
   transform="translate(-60.509)">
</g>
<g
   id="g70"
   transform="translate(-60.509)">
</g>
<g
   id="g72"
   transform="translate(-60.509)">
</g>
<g
   id="g74"
   transform="translate(-60.509)">
</g>
<g
   id="g76"
   transform="translate(-60.509)">
</g>
<g
   id="g78"
   transform="translate(-60.509)">
</g>
<g
   id="g80"
   transform="translate(-60.509)">
</g>
<g
   id="g82"
   transform="translate(-60.509)">
</g>
<g
   id="g84"
   transform="translate(-60.509)">
</g>
<g
   id="g86"
   transform="translate(-60.509)">
</g>
<g
   id="g88"
   transform="translate(-60.509)">
</g>
<g
   id="g90"
   transform="translate(-60.509)">
</g>
</svg>
