<?xml version="1.0" encoding="UTF-8" standalone="no"?>
<svg
   xmlns:dc="http://purl.org/dc/elements/1.1/"
   xmlns:cc="http://creativecommons.org/ns#"
   xmlns:rdf="http://www.w3.org/1999/02/22-rdf-syntax-ns#"
   xmlns:svg="http://www.w3.org/2000/svg"
   xmlns="http://www.w3.org/2000/svg"
   xmlns:sodipodi="http://sodipodi.sourceforge.net/DTD/sodipodi-0.dtd"
   xmlns:inkscape="http://www.inkscape.org/namespaces/inkscape"
   version="1.0"
   width="48.704384"
   height="63.999992"
   viewBox="0 0 36.528286 47.999991"
   preserveAspectRatio="xMidYMid meet"
   id="svg10"
   sodipodi:docname="neutre.svg"
   inkscape:version="0.92.4 (5da689c313, 2019-01-14)">
  <defs
     id="defs14" />
  <sodipodi:namedview
     pagecolor="#ffffff"
     bordercolor="#666666"
     borderopacity="1"
     objecttolerance="10"
     gridtolerance="10"
     guidetolerance="10"
     inkscape:pageopacity="0"
     inkscape:pageshadow="2"
     inkscape:window-width="1920"
     inkscape:window-height="1017"
     id="namedview12"
     showgrid="false"
     inkscape:zoom="3.1289475"
     inkscape:cx="-112.60959"
     inkscape:cy="23.653491"
     inkscape:window-x="1912"
     inkscape:window-y="-8"
     inkscape:window-maximized="1"
     inkscape:current-layer="svg10"
     fit-margin-top="0"
     fit-margin-left="0"
     fit-margin-right="0"
     fit-margin-bottom="0"
     units="px" />
  <metadata
     id="metadata2">
Created by potrace 1.15, written by Peter Selinger 2001-2017
<rdf:RDF>
  <cc:Work
     rdf:about="">
    <dc:format>image/svg+xml</dc:format>
    <dc:type
       rdf:resource="http://purl.org/dc/dcmitype/StillImage" />
    <dc:title></dc:title>
  </cc:Work>
</rdf:RDF>
</metadata>
  <g
     id="g4985"
     transform="matrix(0.03752649,0,0,0.03752649,0.0075053,-0.01140015)"
     style="fill:#000000;fill-opacity:1">
    <path
       d="m 460.5,0.6 c -50.3,3.8 -80.1,11 -113,27.4 -20.2,10.1 -31.8,18.3 -47,33.5 C 287.1,74.8 279.9,83.9 270.8,99.2 243,145.8 229,215.4 229,307.1 c 0,77.7 18.5,143.5 56.7,201.6 11.3,17.3 22.2,30.4 38.7,46.8 37.3,37.1 78.4,59 127.3,67.6 18.5,3.3 51.1,3.3 69.6,0 47.1,-8.3 88,-29.5 124.4,-64.5 52.5,-50.5 86.1,-121.1 95.8,-201.6 3.5,-28.6 3,-82.8 -1.1,-124.5 -6.3,-64.6 -23,-114.8 -50,-151.3 C 682.2,70.3 662.2,50.7 651,42.7 639.6,34.6 613.4,21.4 599.1,16.5 579.4,9.8 558.6,5.3 534,2.5 521.2,1 471.9,-0.3 460.5,0.6 Z"
       id="path4"
       inkscape:connector-curvature="0"
       style="fill:#000000;fill-opacity:1;stroke:none;stroke-width:0.1" />
    <path
       d="M 331,652.6 C 247.7,669 194,685 151.7,706.1 130.6,716.6 116.2,725.6 100.8,737.8 64.6,766.6 39.4,806.4 24.5,858 9.2,911.1 2.5,978 0.4,1099.5 l -0.6,36 3.1,4.6 c 22.2,32.9 72.9,66.6 135.1,89.7 72,26.7 153.9,41.5 268,48.4 27.3,1.6 133.9,1.6 161,0 114,-6.9 196.2,-21.8 268,-48.4 62.1,-23.1 113,-56.9 135.1,-89.7 l 3.1,-4.6 -0.6,-35 C 971.1,1017.8 967.9,965.3 961.9,923 940,769.1 874.3,705.5 693.9,663.6 676.8,659.7 654,654.9 638.1,651.9 l -10.4,-1.9 -8.4,8 c -23.9,22.7 -59.9,38.3 -101.3,44.1 -12.4,1.8 -50.5,1.8 -63,0 -41,-5.6 -78.2,-21.8 -101.6,-44.3 -4.5,-4.3 -8.5,-7.8 -9,-7.7 -0.5,0 -6.5,1.2 -13.4,2.5 z"
       id="path6"
       inkscape:connector-curvature="0"
       style="fill:#000000;fill-opacity:1;stroke:none;stroke-width:0.1" />
  </g>
</svg>
