<?xml version="1.0" encoding="UTF-8" standalone="no"?>
<svg
   xmlns:dc="http://purl.org/dc/elements/1.1/"
   xmlns:cc="http://creativecommons.org/ns#"
   xmlns:rdf="http://www.w3.org/1999/02/22-rdf-syntax-ns#"
   xmlns:svg="http://www.w3.org/2000/svg"
   xmlns="http://www.w3.org/2000/svg"
   xmlns:sodipodi="http://sodipodi.sourceforge.net/DTD/sodipodi-0.dtd"
   xmlns:inkscape="http://www.inkscape.org/namespaces/inkscape"
   sodipodi:docname="video.svg"
   inkscape:version="1.0 (4035a4fb49, 2020-05-01)"
   version="1.1"
   id="svg4185"
   viewBox="0 0 33.3745 36.460393"
   height="10.289933mm"
   width="9.4190254mm">
  <defs
     id="defs4187" />
  <sodipodi:namedview
     inkscape:document-rotation="0"
     inkscape:window-maximized="1"
     inkscape:window-y="-8"
     inkscape:window-x="3832"
     inkscape:window-height="1017"
     inkscape:window-width="1920"
     fit-margin-bottom="0"
     fit-margin-right="0"
     fit-margin-left="0"
     fit-margin-top="0"
     showgrid="false"
     inkscape:current-layer="layer1"
     inkscape:document-units="px"
     inkscape:cy="5.5657327"
     inkscape:cx="11.64209"
     inkscape:zoom="7.9195959"
     inkscape:pageshadow="2"
     inkscape:pageopacity="0.0"
     borderopacity="1.0"
     bordercolor="#666666"
     pagecolor="#ffffff"
     id="base" />
  <metadata
     id="metadata4190">
    <rdf:RDF>
      <cc:Work
         rdf:about="">
        <dc:format>image/svg+xml</dc:format>
        <dc:type
           rdf:resource="http://purl.org/dc/dcmitype/StillImage" />
        <dc:title />
      </cc:Work>
    </rdf:RDF>
  </metadata>
  <g
     transform="translate(779.05593,1091.7285)"
     id="layer1"
     inkscape:groupmode="layer"
     inkscape:label="Calque 1">
    <path
       inkscape:connector-curvature="0"
       d="M -752.21117,-1055.2681 Z"
       style="fill:#ffffff;fill-opacity:0.99219;stroke:#000000;stroke-width:0.23735;stroke-linecap:round;stroke-linejoin:round;stroke-miterlimit:4;stroke-dasharray:none"
       id="path3729" />
    <g
       transform="matrix(0.23758894,0,0,0.23758894,-709.30756,-1139.0653)"
       id="g4168">
      <path
         id="path3216"
         sodipodi:nodetypes="ccccccccc"
         style="fill:#ffffff;fill-opacity:0.99219;stroke:#000000;stroke-width:4;stroke-linecap:round;stroke-linejoin:round;stroke-miterlimit:4;stroke-dasharray:none"
         d="m -279.14354,206.28849 1.12,137.2 c 0.94,2.27 -0.63,3.8 3.04,5.33 l 101.53,0.53 c 3.67,0.42 5.17,-0.78 5.07,-3.19 l 0.84,-113.07 c 0.35,-1.63 -27.65,-29.47 -29.91,-31.85 l -76.11,0.27 c -4.09,-0.56 -5.18,1.47 -5.58,4.78 z"
         inkscape:connector-curvature="0" />
      <path
         id="path3777"
         sodipodi:nodetypes="cccc"
         style="fill:#000000;fill-opacity:1;stroke:#000000;stroke-width:4;stroke-linecap:round;stroke-linejoin:round;stroke-miterlimit:4;stroke-dasharray:none"
         d="m -200.4339,201.9261 -1.06,31.82 31.11,-0.71 z"
         inkscape:connector-curvature="0" />
    </g>
    <rect
       ry="3.5058608"
       y="-1080.5565"
       x="-778.6853"
       height="13.817215"
       width="32.633301"
       id="rect4147"
       style="fill:#000000;fill-opacity:1;stroke:#000000;stroke-width:0.7412;stroke-miterlimit:4;stroke-dasharray:none;stroke-opacity:1" />
    <g
       style="fill:#ffffff;fill-opacity:1"
       id="g6"
       transform="matrix(0.18988769,0,0,0.18988769,-769.86922,-1081.1485)">
      <g
         style="fill:#ffffff;fill-opacity:1"
         id="g4">
        <path
           style="fill:#ffffff;fill-opacity:1"
           inkscape:connector-curvature="0"
           id="path2"
           d="m 0,44.866 v 20.008 c 0,4.685 4.312,8.115 8.996,8.115 h 41.008 c 4.685,0 7.996,-3.431 7.996,-8.115 v -0.268 l 15.1,7.501 c 0.28,0.142 0.464,0.215 0.777,0.215 2.943,0 5.123,-2.396 5.123,-5.454 V 40.976 c 0,-3.058 -2.055,-5.452 -4.998,-5.452 -0.312,0 -0.494,0.073 -0.773,0.213 L 58.284,43.28 c -0.722,-3.802 -3.95,-6.705 -7.913,-6.89 4.167,-3.066 6.903,-7.989 6.903,-13.548 0,-9.28 -7.541,-16.831 -16.822,-16.831 -7.581,0 -13.998,5.042 -16.097,11.946 -2.309,-2.322 -5.501,-3.764 -9.027,-3.764 -7.024,0 -12.738,5.715 -12.738,12.738 0,3.867 1.489,7.331 4.219,9.669 C 3.055,37.481 0,40.848 0,44.866 Z M 74.121,39.577 C 74.723,39.76 75,40.387 75,40.976 v 25.892 c 0,0.59 -0.277,1.218 -0.877,1.401 L 58,60.125 V 47.678 Z M 26.742,32.176 c 1.039,1.464 2.307,2.813 3.75,3.813 h -6.637 c 1.187,-1 2.169,-2.364 2.887,-3.813 z m 0.888,-9.333 c 0,-7.075 5.755,-12.831 12.829,-12.831 7.075,0 12.83,5.756 12.83,12.831 0,7.073 -5.755,12.828 -12.83,12.828 -6.016,0 -11.063,-4.168 -12.443,-9.764 -0.056,-0.693 -0.17,-1.368 -0.333,-2.025 -0.028,-0.344 -0.053,-0.689 -0.053,-1.039 z m -12.3,-4.649 c 3.97,0 7.324,2.664 8.384,6.296 0.067,0.689 0.185,1.363 0.333,2.026 0.006,0.139 0.021,0.275 0.021,0.416 0,4.818 -3.92,8.738 -8.738,8.738 -4.819,0 -8.739,-3.92 -8.739,-8.738 0,-4.818 3.92,-8.738 8.739,-8.738 z M 54,64.493 c 0,2.483 -2.013,4.496 -4.496,4.496 H 8.496 C 6.013,68.989 4,66.976 4,64.493 V 44.485 c 0,-2.483 2.013,-4.496 4.496,-4.496 h 41.008 c 2.483,0 4.496,2.013 4.496,4.496 z" />
      </g>
    </g>
    <path
       id="iconBg"
       d="m -756.74529,-1062.1487 2.00684,2.007 v -5.3368 h 1.05817 v 5.3368 l 2.00684,-2.007 0.74814,0.7481 -3.28407,3.2844 -3.28406,-3.2844 z"
       class="icon-vs-bg"
       style="fill:#424242;stroke-width:0.529109" />
  </g>
</svg>
