<?xml version="1.0" encoding="UTF-8" standalone="no"?>
<!-- Created with Inkscape (http://www.inkscape.org/) -->

<svg
   xmlns:dc="http://purl.org/dc/elements/1.1/"
   xmlns:cc="http://creativecommons.org/ns#"
   xmlns:rdf="http://www.w3.org/1999/02/22-rdf-syntax-ns#"
   xmlns:svg="http://www.w3.org/2000/svg"
   xmlns="http://www.w3.org/2000/svg"
   xmlns:sodipodi="http://sodipodi.sourceforge.net/DTD/sodipodi-0.dtd"
   xmlns:inkscape="http://www.inkscape.org/namespaces/inkscape"
   width="9.4190254mm"
   height="10.289933mm"
   viewBox="0 0 33.3745 36.460393"
   id="svg4185"
   version="1.1"
   inkscape:version="0.92.4 (5da689c313, 2019-01-14)"
   sodipodi:docname="WWW.svg">
  <defs
     id="defs4187" />
  <sodipodi:namedview
     id="base"
     pagecolor="#ffffff"
     bordercolor="#666666"
     borderopacity="1.0"
     inkscape:pageopacity="0.0"
     inkscape:pageshadow="2"
     inkscape:zoom="7.9195959"
     inkscape:cx="11.64209"
     inkscape:cy="5.5657327"
     inkscape:document-units="px"
     inkscape:current-layer="layer1"
     showgrid="false"
     fit-margin-top="0"
     fit-margin-left="0"
     fit-margin-right="0"
     fit-margin-bottom="0"
     inkscape:window-width="1920"
     inkscape:window-height="1017"
     inkscape:window-x="-8"
     inkscape:window-y="-8"
     inkscape:window-maximized="1" />
  <metadata
     id="metadata4190">
    <rdf:RDF>
      <cc:Work
         rdf:about="">
        <dc:format>image/svg+xml</dc:format>
        <dc:type
           rdf:resource="http://purl.org/dc/dcmitype/StillImage" />
        <dc:title></dc:title>
      </cc:Work>
    </rdf:RDF>
  </metadata>
  <g
     inkscape:label="Calque 1"
     inkscape:groupmode="layer"
     id="layer1"
     transform="translate(779.05593,1091.7285)">
    <path
       id="path3729"
       style="fill:#ffffff;fill-opacity:0.99219001;stroke:#000000;stroke-width:0.23734994;stroke-linecap:round;stroke-linejoin:round;stroke-miterlimit:4;stroke-dasharray:none"
       d="M -752.21117,-1055.2681 Z"
       inkscape:connector-curvature="0" />
    <g
       id="g4168"
       transform="matrix(0.23758894,0,0,0.23758894,-709.30756,-1139.0653)">
      <path
         inkscape:connector-curvature="0"
         d="m -279.14354,206.28849 1.12,137.2 c 0.94,2.27 -0.63,3.8 3.04,5.33 l 101.53,0.53 c 3.67,0.42 5.17,-0.78 5.07,-3.19 l 0.84,-113.07 c 0.35,-1.63 -27.65,-29.47 -29.91,-31.85 l -76.11,0.27 c -4.09,-0.56 -5.18,1.47 -5.58,4.78 z"
         style="fill:#ffffff;fill-opacity:0.99219001;stroke:#000000;stroke-width:4;stroke-linecap:round;stroke-linejoin:round;stroke-miterlimit:4;stroke-dasharray:none"
         sodipodi:nodetypes="ccccccccc"
         id="path3216" />
      <path
         inkscape:connector-curvature="0"
         d="m -200.4339,201.9261 -1.06,31.82 31.11,-0.71 z"
         style="fill:#000000;fill-opacity:1;stroke:#000000;stroke-width:4;stroke-linecap:round;stroke-linejoin:round;stroke-miterlimit:4;stroke-dasharray:none"
         sodipodi:nodetypes="cccc"
         id="path3777" />
    </g>
    <rect
       style="fill:#000000;fill-opacity:1;stroke:#000000;stroke-width:0.74119985;stroke-miterlimit:4;stroke-dasharray:none;stroke-opacity:1"
       id="rect4147"
       width="32.633301"
       height="13.817215"
       x="-778.6853"
       y="-1080.5565"
       ry="3.5058608" />
    <text
       xml:space="preserve"
       style="font-style:normal;font-weight:normal;line-height:0%;font-family:sans-serif;letter-spacing:0px;word-spacing:0px;fill:#000000;fill-opacity:1;stroke:none;stroke-width:1px;stroke-linecap:butt;stroke-linejoin:miter;stroke-opacity:1"
       x="-778.30432"
       y="-1069.6215"
       id="text4149"><tspan
         sodipodi:role="line"
         id="tspan4151"
         x="-778.30432"
         y="-1069.6215"
         style="font-style:normal;font-variant:normal;font-weight:bold;font-stretch:normal;font-size:11.25px;line-height:1.25;font-family:Arial;-inkscape-font-specification:'Arial Bold';fill:#ffffff">WWW</tspan></text>
    <path
       inkscape:connector-curvature="0"
       d="m -762.13625,-1066.2106 c -1.26262,-0.062 -2.47363,0.371 -3.40954,1.2198 -0.93732,0.8495 -1.48696,2.0122 -1.54893,3.274 -0.062,1.2625 0.37105,2.4735 1.22062,3.41 0.84826,0.9362 2.01097,1.4859 3.2736,1.548 2.6068,0.1275 4.83003,-1.8879 4.95796,-4.4938 0.12804,-2.6059 -1.88697,-4.8299 -4.49377,-4.958 z m 3.73965,4.921 c -0.0217,0.4417 -0.1161,0.8627 -0.26847,1.2524 -0.31743,-0.042 -0.6307,-0.094 -0.93979,-0.1582 0.31705,-0.7698 0.42536,-1.6135 0.30521,-2.4608 -0.11447,-0.8059 -0.42835,-1.5365 -0.8827,-2.148 1.13445,0.7493 1.85717,2.0608 1.78572,3.5146 z m -3.03503,-3.3148 c -0.77767,0.8931 -1.44145,1.8857 -1.9681,2.9588 -0.4455,-0.2583 -0.87438,-0.5423 -1.28493,-0.8494 0.33491,-0.6365 0.83699,-1.1717 1.46837,-1.5511 0.56109,-0.3379 1.17275,-0.5189 1.78472,-0.5585 z m -2.28219,3.6491 c -0.33589,0.7946 -0.59918,1.6289 -0.77951,2.4943 -0.0277,-0.042 -0.0551,-0.085 -0.081,-0.1275 -0.54767,-0.9103 -0.70751,-1.98 -0.45136,-3.0094 0.0142,-0.06 0.031,-0.1153 0.0479,-0.1752 0.40527,0.2955 0.82701,0.5688 1.26386,0.8185 z m 0.289,2.902 c -0.12884,0.019 -0.25717,0.029 -0.38489,0.035 0.16518,-0.8975 0.42307,-1.7601 0.76424,-2.5792 0.7343,0.3668 1.50569,0.6694 2.30861,0.9005 -0.0222,0.031 -0.0446,0.064 -0.0679,0.095 -0.63865,0.8494 -1.56839,1.3988 -2.62005,1.5491 z m 0.69064,-3.2325 c 0.53013,-1.0879 1.20914,-2.0878 2.01023,-2.9789 0.34663,0.4956 0.58566,1.0753 0.67634,1.7136 0.10673,0.7528 -0.001,1.5011 -0.30352,2.1776 -0.8312,-0.2251 -1.62857,-0.5327 -2.38301,-0.9123 z m -2.30456,-3.1448 c 0.78697,-0.7142 1.80438,-1.078 2.86545,-1.026 0.23983,0.014 0.47398,0.046 0.70006,0.098 -0.73159,0.046 -1.46244,0.2616 -2.13245,0.6648 -0.7091,0.4264 -1.28135,1.0183 -1.67771,1.7196 -0.18397,-0.1555 -0.36364,-0.3152 -0.5394,-0.481 0.20568,-0.3605 0.46811,-0.6897 0.78401,-0.9756 z m -1.30137,2.7507 c 0.0178,-0.3611 0.0842,-0.7115 0.19416,-1.046 0.17432,0.1587 0.35245,0.3128 0.53486,0.4633 -0.057,0.1563 -0.10647,0.3168 -0.14793,0.4816 -0.20271,0.8151 -0.18498,1.6502 0.0403,2.4369 -0.44322,-0.6908 -0.66242,-1.4996 -0.62133,-2.3357 z m 3.88053,4.1692 c 0.89506,-0.3021 1.67914,-0.8655 2.25888,-1.6382 0.085,-0.1139 0.16494,-0.23 0.23907,-0.3502 0.3071,0.068 0.61696,0.1262 0.93136,0.1736 -0.72932,1.1227 -2.0053,1.8486 -3.42925,1.8148 z"
       style="fill:#000000;fill-opacity:1;stroke-width:0.08120628"
       id="path244" />
  </g>
</svg>
