<?xml version="1.0" encoding="UTF-8" standalone="no"?>
<!-- Created with Inkscape (http://www.inkscape.org/) -->

<svg
   xmlns:dc="http://purl.org/dc/elements/1.1/"
   xmlns:cc="http://creativecommons.org/ns#"
   xmlns:rdf="http://www.w3.org/1999/02/22-rdf-syntax-ns#"
   xmlns:svg="http://www.w3.org/2000/svg"
   xmlns="http://www.w3.org/2000/svg"
   xmlns:xlink="http://www.w3.org/1999/xlink"
   xmlns:sodipodi="http://sodipodi.sourceforge.net/DTD/sodipodi-0.dtd"
   xmlns:inkscape="http://www.inkscape.org/namespaces/inkscape"
   id="svg2965"
   sodipodi:docname="acceuil.svg"
   viewBox="0 0 63.785719 64"
   version="1.1"
   inkscape:version="0.92.4 (5da689c313, 2019-01-14)"
   width="63.785717"
   height="64"
   inkscape:export-filename="D:\data\Images\openclipart.org\acceuil.png"
   inkscape:export-xdpi="26.337519"
   inkscape:export-ydpi="26.337519">
  <defs
     id="defs2967">
    <linearGradient
       id="linearGradient3003"
       y2="-147.97"
       gradientUnits="userSpaceOnUse"
       y1="-310.04999"
       gradientTransform="matrix(0.93571,0,0,0.97143,96.553,671.01)"
       x2="387.75"
       x1="381.89001"
       inkscape:collect="always">
      <stop
         id="stop3919"
         style="stop-color:#edf4fd;stop-opacity:.52846"
         offset="0" />
      <stop
         id="stop3921"
         style="stop-color:#175bb3;stop-opacity:0"
         offset="1" />
    </linearGradient>
    <linearGradient
       inkscape:collect="always"
       xlink:href="#linearGradient3003"
       id="linearGradient2998"
       gradientUnits="userSpaceOnUse"
       gradientTransform="matrix(0.70976411,0,0,0.7368588,130.49935,712.72122)"
       x1="381.89001"
       y1="-310.04999"
       x2="387.75"
       y2="-147.97" />
  </defs>
  <sodipodi:namedview
     id="base"
     bordercolor="#666666"
     inkscape:pageshadow="2"
     inkscape:window-y="-8"
     pagecolor="#ffffff"
     inkscape:window-height="1017"
     inkscape:window-maximized="1"
     inkscape:zoom="1.4"
     inkscape:window-x="1912"
     showgrid="false"
     borderopacity="1.0"
     inkscape:current-layer="layer1"
     inkscape:cx="-42.885268"
     inkscape:cy="87.807975"
     inkscape:window-width="1920"
     inkscape:pageopacity="0.0"
     inkscape:document-units="px"
     fit-margin-top="0"
     fit-margin-left="0"
     fit-margin-right="0"
     fit-margin-bottom="0" />
  <g
     id="layer1"
     inkscape:label="Layer 1"
     inkscape:groupmode="layer"
     transform="translate(-322.53,-578.31)">
    <g
       transform="matrix(0.37818858,0,0,0.37818858,43.919707,406.37218)"
       id="g4126"
       style="fill:#000000">
      <path
         inkscape:connector-curvature="0"
         d="m 820.67,454.65 a 16.355,12.354 0 0 0 -6.3125,1.2188 16.355,12.354 0 0 0 -7.0312,4.9062 l -68.406,88.781 a 16.355,12.354 0 0 0 7.75,17.594 l 61.438,-79.719 a 16.355,12.354 0 0 1 7.0312,-4.9375 16.355,12.354 0 0 1 21.312,5 l 60.25,79.531 a 16.355,12.354 0 0 0 6.5,-17.031 l -67.531,-89.125 a 16.355,12.354 0 0 0 -15,-6.2188 z"
         style="fill:#000000;stroke-width:1.89999998"
         id="path4109" />
      <path
         inkscape:connector-curvature="0"
         transform="translate(0,308.27)"
         d="m 820.34,187.12 a 10.051,7.8493 0 0 0 -3.875,0.75 10.051,7.8493 0 0 0 -4.34,3.13 l -42.031,56.406 a 10.051,7.8493 0 0 0 -0.40625,0.5625 c -0.01,0.0143 0.01,0.0481 0,0.0625 a 10.051,7.8493 0 0 0 -0.0937,0.0937 c -1.2273,1.8742 -1.9062,4.1136 -1.9062,6.5312 v 49.031 c 0,6.5978 5.2831,11.906 11.875,11.906 h 24.562 v -42.906 c 0,-6.5978 5.2831,-11.906 11.875,-11.906 h 9.125 c 6.5919,0 11.875,5.3085 11.875,11.906 v 42.906 h 24.531 c 6.5919,0 11.906,-5.3085 11.906,-11.906 v -49.031 c 0,-3.1164 -1.212,-5.913 -3.1562,-8.0312 l -40.75,-55.562 a 10.051,7.8493 0 0 0 -9.1875,-3.9375 z"
         style="fill:#000000;stroke-width:1.89999998"
         id="rect4116" />
      <rect
         x="770.03003"
         y="469.54999"
         width="22.716999"
         height="39.167"
         ry="18.431"
         rx="18.414"
         style="fill:#000000;stroke-width:1.89999998"
         id="rect4124" />
    </g>
  </g>
  <metadata
     id="metadata20">
    <rdf:RDF>
      <cc:Work>
        <dc:format>image/svg+xml</dc:format>
        <dc:type
           rdf:resource="http://purl.org/dc/dcmitype/StillImage" />
        <cc:license
           rdf:resource="http://creativecommons.org/publicdomain/zero/1.0/" />
        <dc:publisher>
          <cc:Agent
             rdf:about="http://openclipart.org/">
            <dc:title>Openclipart</dc:title>
          </cc:Agent>
        </dc:publisher>
        <dc:title></dc:title>
        <dc:date>2010-08-04T13:04:34</dc:date>
        <dc:description>Single web 2.0  icons from my set. check the whole set in my clip art if you want get all of it together.</dc:description>
        <dc:source>https://openclipart.org/detail/77353/house-blue-by-shokunin</dc:source>
        <dc:creator>
          <cc:Agent>
            <dc:title>shokunin</dc:title>
          </cc:Agent>
        </dc:creator>
        <dc:subject>
          <rdf:Bag>
            <rdf:li>arrow</rdf:li>
            <rdf:li>chat</rdf:li>
            <rdf:li>communicator</rdf:li>
            <rdf:li>computer</rdf:li>
            <rdf:li>desktop</rdf:li>
            <rdf:li>earth</rdf:li>
            <rdf:li>email.mail</rdf:li>
            <rdf:li>globe</rdf:li>
            <rdf:li>icon</rdf:li>
            <rdf:li>icons</rdf:li>
            <rdf:li>information</rdf:li>
            <rdf:li>interface</rdf:li>
            <rdf:li>lock</rdf:li>
            <rdf:li>messenger</rdf:li>
            <rdf:li>mobile</rdf:li>
            <rdf:li>network</rdf:li>
            <rdf:li>pc</rdf:li>
            <rdf:li>phone</rdf:li>
            <rdf:li>secure</rdf:li>
            <rdf:li>set</rdf:li>
            <rdf:li>shopping cart</rdf:li>
            <rdf:li>unlock</rdf:li>
            <rdf:li>web 2.0</rdf:li>
            <rdf:li>website</rdf:li>
          </rdf:Bag>
        </dc:subject>
      </cc:Work>
      <cc:License
         rdf:about="http://creativecommons.org/publicdomain/zero/1.0/">
        <cc:permits
           rdf:resource="http://creativecommons.org/ns#Reproduction" />
        <cc:permits
           rdf:resource="http://creativecommons.org/ns#Distribution" />
        <cc:permits
           rdf:resource="http://creativecommons.org/ns#DerivativeWorks" />
      </cc:License>
    </rdf:RDF>
  </metadata>
</svg>
