<?xml version="1.0" encoding="UTF-8" standalone="no"?>
<svg
   xmlns:dc="http://purl.org/dc/elements/1.1/"
   xmlns:cc="http://creativecommons.org/ns#"
   xmlns:rdf="http://www.w3.org/1999/02/22-rdf-syntax-ns#"
   xmlns:svg="http://www.w3.org/2000/svg"
   xmlns="http://www.w3.org/2000/svg"
   xmlns:sodipodi="http://sodipodi.sourceforge.net/DTD/sodipodi-0.dtd"
   xmlns:inkscape="http://www.inkscape.org/namespaces/inkscape"
   width="9.4190254mm"
   height="10.289933mm"
   viewBox="0 0 33.3745 36.460393"
   id="svg4185"
   version="1.1"
   inkscape:version="1.0 (4035a4fb49, 2020-05-01)"
   sodipodi:docname="audio.svg">
  <defs
     id="defs4187" />
  <sodipodi:namedview
     id="base"
     pagecolor="#ffffff"
     bordercolor="#666666"
     borderopacity="1.0"
     inkscape:pageopacity="0.0"
     inkscape:pageshadow="2"
     inkscape:zoom="7.9195959"
     inkscape:cx="11.64209"
     inkscape:cy="5.5657327"
     inkscape:document-units="px"
     inkscape:current-layer="layer1"
     showgrid="false"
     fit-margin-top="0"
     fit-margin-left="0"
     fit-margin-right="0"
     fit-margin-bottom="0"
     inkscape:window-width="1920"
     inkscape:window-height="1017"
     inkscape:window-x="1912"
     inkscape:window-y="-8"
     inkscape:window-maximized="1"
     inkscape:document-rotation="0" />
  <metadata
     id="metadata4190">
    <rdf:RDF>
      <cc:Work
         rdf:about="">
        <dc:format>image/svg+xml</dc:format>
        <dc:type
           rdf:resource="http://purl.org/dc/dcmitype/StillImage" />
        <dc:title></dc:title>
      </cc:Work>
    </rdf:RDF>
  </metadata>
  <g
     inkscape:label="Calque 1"
     inkscape:groupmode="layer"
     id="layer1"
     transform="translate(779.05593,1091.7285)">
    <path
       id="path3729"
       style="fill:#ffffff;fill-opacity:0.99219;stroke:#000000;stroke-width:0.23735;stroke-linecap:round;stroke-linejoin:round;stroke-miterlimit:4;stroke-dasharray:none"
       d="M -752.21117,-1055.2681 Z"
       inkscape:connector-curvature="0" />
    <g
       id="g4168"
       transform="matrix(0.23758894,0,0,0.23758894,-709.30756,-1139.0653)">
      <path
         inkscape:connector-curvature="0"
         d="m -279.14354,206.28849 1.12,137.2 c 0.94,2.27 -0.63,3.8 3.04,5.33 l 101.53,0.53 c 3.67,0.42 5.17,-0.78 5.07,-3.19 l 0.84,-113.07 c 0.35,-1.63 -27.65,-29.47 -29.91,-31.85 l -76.11,0.27 c -4.09,-0.56 -5.18,1.47 -5.58,4.78 z"
         style="fill:#ffffff;fill-opacity:0.99219;stroke:#000000;stroke-width:4;stroke-linecap:round;stroke-linejoin:round;stroke-miterlimit:4;stroke-dasharray:none"
         sodipodi:nodetypes="ccccccccc"
         id="path3216" />
      <path
         inkscape:connector-curvature="0"
         d="m -200.4339,201.9261 -1.06,31.82 31.11,-0.71 z"
         style="fill:#000000;fill-opacity:1;stroke:#000000;stroke-width:4;stroke-linecap:round;stroke-linejoin:round;stroke-miterlimit:4;stroke-dasharray:none"
         sodipodi:nodetypes="cccc"
         id="path3777" />
    </g>
    <rect
       style="fill:#000000;fill-opacity:1;stroke:#000000;stroke-width:0.7412;stroke-miterlimit:4;stroke-dasharray:none;stroke-opacity:1"
       id="rect4147"
       width="32.633301"
       height="13.817215"
       x="-778.6853"
       y="-1080.5565"
       ry="3.5058608" />
    <path
       style="fill:#424242;stroke-width:0.529109"
       class="icon-vs-bg"
       d="m -756.74529,-1062.1487 2.00684,2.007 v -5.3368 h 1.05817 v 5.3368 l 2.00684,-2.007 0.74814,0.7481 -3.28407,3.2844 -3.28406,-3.2844 z"
       id="iconBg" />
    <g
       style="fill:#ffffff;fill-opacity:1;stroke:none;stroke-opacity:1"
       id="g1"
       transform="matrix(0.20017168,0,0,0.20017168,-769.98799,-1081.3064)">
      <polygon
         style="fill:#ffffff;fill-opacity:1;stroke:none;stroke-width:5;stroke-linejoin:round;stroke-opacity:1"
         points="21.989,47.699 39.389,62.75 39.389,13.769 22.235,28.606 6,28.606 6,47.699 "
         id="polygon1" />
      <path
         inkscape:connector-curvature="0"
         style="fill:#ffffff;fill-opacity:1;stroke:none;stroke-width:5;stroke-linecap:round;stroke-opacity:1"
         d="m 48.128,49.03 c 1.929,-3.096 3.062,-6.739 3.062,-10.653 0,-3.978 -1.164,-7.674 -3.147,-10.8"
         id="path1" />
      <path
         inkscape:connector-curvature="0"
         style="fill:#ffffff;fill-opacity:1;stroke:none;stroke-width:5;stroke-linecap:round;stroke-opacity:1"
         d="m 55.082,20.537 c 3.695,4.986 5.884,11.157 5.884,17.84 0,6.621 -2.151,12.738 -5.788,17.699"
         id="path2" />
      <path
         inkscape:connector-curvature="0"
         style="fill:#ffffff;fill-opacity:1;stroke:none;stroke-width:5;stroke-linecap:round;stroke-opacity:1"
         d="m 61.71,62.611 c 5.267,-6.666 8.418,-15.08 8.418,-24.233 0,-9.217 -3.192,-17.682 -8.519,-24.368"
         id="path6" />
    </g>
  </g>
</svg>
