<?xml version="1.0" encoding="UTF-8" standalone="no"?>
<svg
   xmlns:dc="http://purl.org/dc/elements/1.1/"
   xmlns:cc="http://creativecommons.org/ns#"
   xmlns:rdf="http://www.w3.org/1999/02/22-rdf-syntax-ns#"
   xmlns:svg="http://www.w3.org/2000/svg"
   xmlns="http://www.w3.org/2000/svg"
   xmlns:sodipodi="http://sodipodi.sourceforge.net/DTD/sodipodi-0.dtd"
   xmlns:inkscape="http://www.inkscape.org/namespaces/inkscape"
   inkscape:output_extension="org.inkscape.output.svg.inkscape"
   sodipodi:docname="blob.svg"
   version="1.0"
   inkscape:version="1.0 (4035a4fb49, 2020-05-01)"
   sodipodi:version="0.32"
   id="svg2"
   height="300"
   width="400">
  <defs
     id="defs4">
    <rect
       id="rect853"
       height="109.93882"
       width="283.05704"
       y="152.02796"
       x="65.659915" />
    <rect
       id="rect847"
       height="96.469568"
       width="217.1828"
       y="60.609153"
       x="103.54064" />
    <inkscape:perspective
       id="perspective20"
       inkscape:persp3d-origin="150 : 133.33333 : 1"
       inkscape:vp_z="300 : 200 : 1"
       inkscape:vp_y="0 : 1000 : 0"
       inkscape:vp_x="0 : 200 : 1"
       sodipodi:type="inkscape:persp3d" />
  </defs>
  <sodipodi:namedview
     inkscape:document-rotation="0"
     inkscape:window-maximized="1"
     showgrid="false"
     inkscape:window-y="-8"
     inkscape:window-x="3832"
     inkscape:window-height="1017"
     inkscape:window-width="1920"
     height="400px"
     width="300px"
     inkscape:current-layer="layer1"
     inkscape:document-units="px"
     inkscape:cy="190.74326"
     inkscape:cx="-18.386101"
     inkscape:zoom="0.9899495"
     inkscape:pageshadow="2"
     inkscape:pageopacity="0.0"
     borderopacity="1.0"
     bordercolor="#666666"
     pagecolor="#ffffff"
     id="base" />
  <metadata
     id="metadata7">
    <rdf:RDF>
      <cc:Work
         rdf:about="">
        <dc:format>image/svg+xml</dc:format>
        <dc:type
           rdf:resource="http://purl.org/dc/dcmitype/StillImage" />
        <dc:title />
      </cc:Work>
    </rdf:RDF>
  </metadata>
  <g
     id="layer1"
     inkscape:groupmode="layer"
     inkscape:label="Capa 1">
    <rect
       transform="rotate(-90)"
       y="10"
       x="-290"
       height="380"
       width="280"
       id="rect1872"
       style="fill:#d4d4d4;fill-opacity:1;stroke:none;stroke-width:2.5;stroke-linecap:round;stroke-linejoin:miter;stroke-miterlimit:4;stroke-dasharray:none;stroke-dashoffset:0;stroke-opacity:1" />
    <g
       style="fill:#646464;fill-opacity:1"
       id="g844">
      <rect
         style="fill:#646464;fill-opacity:1;stroke:none;stroke-width:2.5;stroke-linecap:round;stroke-linejoin:miter;stroke-miterlimit:4;stroke-dasharray:none;stroke-dashoffset:0;stroke-opacity:1"
         id="rect4716"
         width="25"
         height="50"
         x="-300"
         y="0"
         transform="rotate(-90)" />
      <rect
         y="250"
         x="0"
         height="50"
         width="25"
         id="rect4718"
         style="fill:#646464;fill-opacity:1;stroke:none;stroke-width:2.5;stroke-linecap:round;stroke-linejoin:miter;stroke-miterlimit:4;stroke-dasharray:none;stroke-dashoffset:0;stroke-opacity:1" />
    </g>
    <g
       style="fill:#646464;fill-opacity:1;stroke:none;stroke-opacity:1"
       id="g836">
      <rect
         y="0"
         x="0"
         height="50"
         width="25"
         id="rect4720"
         style="fill:#646464;fill-opacity:1;stroke:none;stroke-width:2.5;stroke-linecap:round;stroke-linejoin:miter;stroke-miterlimit:4;stroke-dasharray:none;stroke-dashoffset:0;stroke-opacity:1"
         transform="matrix(0,1,1,0,0,0)" />
      <rect
         transform="scale(1,-1)"
         style="fill:#646464;fill-opacity:1;stroke:none;stroke-width:2.5;stroke-linecap:round;stroke-linejoin:miter;stroke-miterlimit:4;stroke-dasharray:none;stroke-dashoffset:0;stroke-opacity:1"
         id="rect4722"
         width="25"
         height="50"
         x="0"
         y="-50" />
    </g>
    <g
       style="fill:#646464;fill-opacity:1"
       id="g848">
      <rect
         y="-400"
         x="-300"
         height="50"
         width="25"
         id="rect4724"
         style="fill:#646464;fill-opacity:1;stroke:none;stroke-width:2.5;stroke-linecap:round;stroke-linejoin:miter;stroke-miterlimit:4;stroke-dasharray:none;stroke-dashoffset:0;stroke-opacity:1"
         transform="matrix(0,-1,-1,0,0,0)" />
      <rect
         transform="scale(-1,1)"
         style="fill:#646464;fill-opacity:1;stroke:none;stroke-width:2.5;stroke-linecap:round;stroke-linejoin:miter;stroke-miterlimit:4;stroke-dasharray:none;stroke-dashoffset:0;stroke-opacity:1"
         id="rect4726"
         width="25"
         height="50"
         x="-400"
         y="250" />
    </g>
    <g
       style="fill:#646464;fill-opacity:1"
       id="g840">
      <rect
         transform="rotate(90)"
         style="fill:#646464;fill-opacity:1;stroke:none;stroke-width:2.5;stroke-linecap:round;stroke-linejoin:miter;stroke-miterlimit:4;stroke-dasharray:none;stroke-dashoffset:0;stroke-opacity:1"
         id="rect4728"
         width="25"
         height="50"
         x="0"
         y="-400" />
      <rect
         y="-50"
         x="-400"
         height="50"
         width="25"
         id="rect4730"
         style="fill:#646464;fill-opacity:1;stroke:none;stroke-width:2.5;stroke-linecap:round;stroke-linejoin:miter;stroke-miterlimit:4;stroke-dasharray:none;stroke-dashoffset:0;stroke-opacity:1"
         transform="scale(-1)" />
    </g>
    <g
       style="font-style:normal;font-variant:normal;font-weight:normal;font-stretch:normal;font-size:85.3333px;line-height:1.25;font-family:'Source Serif Pro';-inkscape-font-specification:'Source Serif Pro, Normal';font-variant-ligatures:normal;font-variant-caps:normal;font-variant-numeric:normal;font-feature-settings:normal;text-align:start;letter-spacing:0px;word-spacing:0px;writing-mode:lr-tb;white-space:pre;shape-inside:url(#rect847);fill:#000000;fill-opacity:1;stroke:none"
       id="text845"
       transform="translate(-10.004302,-40.911178)"
       aria-label="BLOB">
      <path
         id="path864"
         style="shape-inside:url(#rect847)"
         d="m 128.11701,108.19573 h -4.69334 q 0,6.74133 0,12.45866 0.0853,5.632 0.17067,11.09333 h 5.20533 q 8.192,0 12.20266,-2.98667 4.01067,-2.98666 4.01067,-8.61866 0,-5.97333 -4.01067,-8.96 -4.01066,-2.98666 -12.88532,-2.98666 z m 1.36533,-25.599991 h -5.888 q -0.0853,5.461331 -0.17067,11.093328 0,5.546665 0,10.581333 h 4.43734 q 7.76533,0 11.26399,-2.64534 3.49867,-2.645328 3.49867,-8.447992 0,-5.802665 -3.328,-8.191997 -3.24267,-2.389332 -9.81333,-2.389332 z m -22.18666,-0.426667 v -3.498665 h 24.74666 q 8.87466,0 13.73866,3.925332 4.864,3.925331 4.864,9.983996 0,4.522664 -3.072,8.277325 -3.072,3.75467 -10.15467,5.20534 8.53333,1.19466 12.288,5.03466 3.84,3.84 3.84,9.04533 0,3.84 -2.304,7.424 -2.21867,3.584 -7.25333,5.88799 -5.03467,2.304 -13.22666,2.304 h -23.46666 v -3.49866 l 7.85066,-0.93867 q 0.17067,-5.376 0.17067,-10.92266 0,-5.54666 0,-11.09333 v -4.18133 q 0,-5.546665 0,-11.007996 0,-5.546664 -0.17067,-11.007995 z" />
      <path
         id="path866"
         style="shape-inside:url(#rect847)"
         d="m 158.96233,82.169072 v -3.498665 h 24.14932 v 3.498665 l -7.85066,0.938667 q -0.0853,5.461331 -0.17067,11.007995 0,5.461331 0,11.007996 v 5.888 q 0,4.52266 0,9.81333 0.0853,5.20533 0.17067,10.66666 h 19.37065 l 2.47467,-11.776 h 5.20533 l -0.85333,16.04266 h -42.49598 v -3.49866 l 7.85066,-0.93867 q 0.17067,-5.54666 0.17067,-11.00799 0,-5.46133 0,-10.92267 v -4.26666 q 0,-5.546665 0,-11.093329 0,-5.546665 -0.17067,-10.922662 z" />
      <path
         id="path868"
         style="shape-inside:url(#rect847)"
         d="m 234.58229,137.03838 q -4.94933,0 -9.64266,-1.87733 -4.69333,-1.96267 -8.448,-5.71733 -3.75466,-3.75467 -5.97333,-9.30133 -2.13333,-5.632 -2.13333,-12.97066 0,-6.99733 2.21867,-12.543996 2.21866,-5.546665 5.88799,-9.386663 3.75467,-3.839998 8.448,-5.802664 4.69333,-2.047999 9.64266,-2.047999 4.94933,0 9.55733,1.962665 4.69333,1.877333 8.36267,5.631998 3.75466,3.754665 5.97333,9.30133 2.21866,5.546664 2.21866,12.885329 0,6.99733 -2.21866,12.54399 -2.13334,5.54667 -5.888,9.472 -3.66933,3.84 -8.36266,5.888 -4.69334,1.96266 -9.64267,1.96266 z m 0,-4.26666 q 4.43733,0 7.59467,-2.13333 3.24266,-2.21867 5.20533,-5.80267 2.048,-3.66933 2.98666,-8.192 0.93867,-4.60799 0.93867,-9.47199 0,-4.77867 -0.93867,-9.301331 -0.93866,-4.607998 -2.98666,-8.27733 -1.96267,-3.669332 -5.20533,-5.802664 -3.15734,-2.133332 -7.59467,-2.133332 -4.43733,0 -7.67999,2.133332 -3.15734,2.133332 -5.20533,5.802664 -2.048,3.669332 -3.072,8.27733 -0.93867,4.522661 -0.93867,9.301331 0,4.864 0.93867,9.47199 1.024,4.52267 3.072,8.192 2.04799,3.584 5.20533,5.80267 3.24266,2.13333 7.67999,2.13333 z" />
      <path
         id="path870"
         style="shape-inside:url(#rect847)"
         d="m 287.2836,108.19573 h -4.69333 q 0,6.74133 0,12.45866 0.0853,5.632 0.17067,11.09333 h 5.20533 q 8.19199,0 12.20266,-2.98667 4.01066,-2.98666 4.01066,-8.61866 0,-5.97333 -4.01066,-8.96 -4.01067,-2.98666 -12.88533,-2.98666 z m 1.36533,-25.599991 h -5.88799 q -0.0853,5.461331 -0.17067,11.093328 0,5.546665 0,10.581333 h 4.43733 q 7.76533,0 11.264,-2.64534 3.49866,-2.645328 3.49866,-8.447992 0,-5.802665 -3.328,-8.191997 -3.24266,-2.389332 -9.81333,-2.389332 z m -22.18665,-0.426667 v -3.498665 h 24.74665 q 8.87467,0 13.73866,3.925332 4.864,3.925331 4.864,9.983996 0,4.522664 -3.072,8.277325 -3.072,3.75467 -10.15466,5.20534 8.53333,1.19466 12.288,5.03466 3.83999,3.84 3.83999,9.04533 0,3.84 -2.304,7.424 -2.21866,3.584 -7.25333,5.88799 -5.03466,2.304 -13.22666,2.304 h -23.46665 v -3.49866 l 7.85066,-0.93867 q 0.17067,-5.376 0.17067,-10.92266 0,-5.54666 0,-11.09333 v -4.18133 q 0,-5.546665 0,-11.007996 0,-5.546664 -0.17067,-11.007995 z" />
    </g>
    <g
       style="font-style:normal;font-variant:normal;font-weight:normal;font-stretch:normal;font-size:26.6667px;line-height:1.25;font-family:'Source Serif Pro';-inkscape-font-specification:'Source Serif Pro, Normal';font-variant-ligatures:normal;font-variant-caps:normal;font-variant-numeric:normal;font-feature-settings:normal;text-align:center;letter-spacing:0px;word-spacing:0px;writing-mode:lr-tb;white-space:pre;shape-inside:url(#rect853);fill:#000000;fill-opacity:1;stroke:none"
       id="text851"
       transform="matrix(1.616305,0,0,1.616305,-135.20304,-113.55406)"
       aria-label="Voir BLOB dans le glossaire de
l'aide de GH">
      <path
         id="path873"
         style="text-align:center;text-anchor:middle;shape-inside:url(#rect853)"
         d="m 101.26022,158.76476 v -1.09333 h 7.28001 v 1.2 l -2.56001,0.24 4.48001,12.77335 4.32,-12.74669 -2.34666,-0.26666 v -1.2 h 6.16 v 1.09333 l -2.32,0.32 -5.62667,16.61336 h -1.17334 l -6.21334,-16.69336 z" />
      <path
         id="path875"
         style="text-align:center;text-anchor:middle;shape-inside:url(#rect853)"
         d="m 124.26066,175.85812 q -1.54666,0 -2.96,-0.72001 -1.38667,-0.74666 -2.26667,-2.21333 -0.88,-1.49334 -0.88,-3.68001 0,-2.21333 0.88,-3.70667 0.88,-1.52 2.26667,-2.26667 1.41334,-0.77333 2.96,-0.77333 1.54667,0 2.93334,0.77333 1.41334,0.74667 2.29334,2.26667 0.90667,1.49334 0.90667,3.70667 0,2.18667 -0.90667,3.68001 -0.88,1.46667 -2.29334,2.21333 -1.38667,0.72001 -2.93334,0.72001 z m 0,-1.20001 q 1.73334,0 2.66667,-1.36 0.93334,-1.38667 0.93334,-4.05334 0,-2.69333 -0.93334,-4.10667 -0.93333,-1.41333 -2.66667,-1.41333 -1.73333,0 -2.66667,1.41333 -0.90666,1.41334 -0.90666,4.10667 0,2.66667 0.90666,4.05334 0.93334,1.36 2.66667,1.36 z" />
      <path
         id="path877"
         style="text-align:center;text-anchor:middle;shape-inside:url(#rect853)"
         d="m 132.52276,175.51145 v -0.96 l 2,-0.37334 q 0.0267,-1.01333 0.0267,-2.18667 0.0267,-1.2 0.0267,-2.08 v -1.25333 q 0,-1.09334 -0.0267,-1.81334 0,-0.74667 -0.0533,-1.54667 l -2.13333,-0.24 v -0.93333 l 4.10667,-1.62667 0.4,0.26667 -0.08,3.62667 v 3.52 q 0,0.88 0,2.08 0.0267,1.17334 0.0533,2.18667 l 1.86667,0.37334 v 0.96 z m 3.14667,-15.94669 q -0.74667,0 -1.28,-0.48 -0.50667,-0.48 -0.50667,-1.22667 0,-0.77333 0.50667,-1.22667 0.53333,-0.48 1.28,-0.48 0.74667,0 1.25333,0.48 0.53334,0.45334 0.53334,1.22667 0,0.74667 -0.53334,1.22667 -0.50666,0.48 -1.25333,0.48 z" />
      <path
         id="path879"
         style="text-align:center;text-anchor:middle;shape-inside:url(#rect853)"
         d="m 140.67819,175.51145 v -0.96 l 1.92,-0.34667 q 0.0267,-1.01333 0.0267,-2.18667 0.0267,-1.2 0.0267,-2.10667 v -1.28 q 0,-1.09334 -0.0267,-1.81334 0,-0.72 -0.0533,-1.52 l -2.10667,-0.24 v -0.93333 l 3.73334,-1.62667 0.4,0.26667 0.29333,3.14667 q 0.66667,-1.60001 1.70667,-2.50667 1.06667,-0.90667 2.13334,-0.90667 0.61333,0 1.14667,0.26667 0.53333,0.26666 0.77333,0.72 0,1.94667 -1.57333,1.94667 -0.45334,0 -0.85334,-0.16 -0.4,-0.18667 -0.77333,-0.50667 l -0.32,-0.29334 q -0.8,0.58667 -1.33334,1.44001 -0.53333,0.85333 -0.88,2 v 2 q 0,0.88 0,2.05334 0.0267,1.17333 0.0533,2.18667 l 2.18667,0.4 v 0.96 z" />
      <path
         id="path881"
         style="text-align:center;text-anchor:middle;shape-inside:url(#rect853)"
         d="m 164.73821,166.8981 h -1.46667 q 0,2.10667 0,3.89334 0.0267,1.76 0.0533,3.46667 h 1.62667 q 2.56,0 3.81334,-0.93333 1.25333,-0.93334 1.25333,-2.69334 0,-1.86667 -1.25333,-2.8 -1.25334,-0.93334 -4.02668,-0.93334 z m 0.42667,-8.00001 h -1.84 q -0.0267,1.70667 -0.0533,3.46668 0,1.73333 0,3.30667 h 1.38667 q 2.42667,0 3.52001,-0.82667 1.09333,-0.82667 1.09333,-2.64001 0,-1.81333 -1.04,-2.56 -1.01333,-0.74667 -3.06667,-0.74667 z m -6.93334,-0.13333 v -1.09333 h 7.73334 q 2.77334,0 4.29334,1.22666 1.52,1.22667 1.52,3.12001 0,1.41333 -0.96,2.58667 -0.96,1.17333 -3.17334,1.62667 2.66667,0.37333 3.84001,1.57333 1.2,1.2 1.2,2.82667 0,1.2 -0.72,2.32001 -0.69333,1.12 -2.26667,1.84 -1.57334,0.72 -4.13334,0.72 h -7.33334 v -1.09334 l 2.45334,-0.29333 q 0.0533,-1.68 0.0533,-3.41334 0,-1.73333 0,-3.46667 v -1.30667 q 0,-1.73333 0,-3.44 0,-1.73334 -0.0533,-3.44001 z" />
      <path
         id="path883"
         style="text-align:center;text-anchor:middle;shape-inside:url(#rect853)"
         d="m 174.37739,158.76476 v -1.09333 h 7.54668 v 1.09333 l -2.45334,0.29333 q -0.0267,1.70667 -0.0533,3.44001 0,1.70667 0,3.44 v 1.84001 q 0,1.41333 0,3.06667 0.0267,1.62666 0.0533,3.33333 h 6.05334 l 0.77334,-3.68 h 1.62667 l -0.26667,5.01334 h -13.28002 v -1.09334 l 2.45334,-0.29333 q 0.0533,-1.73334 0.0533,-3.44 0,-1.70667 0,-3.41334 v -1.33334 q 0,-1.73333 0,-3.46667 0,-1.73333 -0.0533,-3.41334 z" />
      <path
         id="path885"
         style="text-align:center;text-anchor:middle;shape-inside:url(#rect853)"
         d="m 198.00867,175.91145 q -1.54667,0 -3.01334,-0.58667 -1.46666,-0.61333 -2.64,-1.78667 -1.17333,-1.17333 -1.86667,-2.90667 -0.66667,-1.76 -0.66667,-4.05334 0,-2.18667 0.69334,-3.92 0.69333,-1.73334 1.84,-2.93334 1.17334,-1.2 2.64,-1.81333 1.46667,-0.64 3.01334,-0.64 1.54667,0 2.98667,0.61333 1.46667,0.58667 2.61334,1.76 1.17333,1.17334 1.86667,2.90667 0.69333,1.73334 0.69333,4.02667 0,2.18667 -0.69333,3.92001 -0.66667,1.73333 -1.84,2.96 -1.14667,1.2 -2.61334,1.84 -1.46667,0.61334 -3.01334,0.61334 z m 0,-1.33334 q 1.38667,0 2.37334,-0.66666 1.01333,-0.69334 1.62667,-1.81334 0.64,-1.14667 0.93333,-2.56 0.29334,-1.44 0.29334,-2.96001 0,-1.49333 -0.29334,-2.90667 -0.29333,-1.44 -0.93333,-2.58667 -0.61334,-1.14666 -1.62667,-1.81333 -0.98667,-0.66667 -2.37334,-0.66667 -1.38667,0 -2.4,0.66667 -0.98667,0.66667 -1.62667,1.81333 -0.64,1.14667 -0.96,2.58667 -0.29333,1.41334 -0.29333,2.90667 0,1.52001 0.29333,2.96001 0.32,1.41333 0.96,2.56 0.64,1.12 1.62667,1.81334 1.01333,0.66666 2.4,0.66666 z" />
      <path
         id="path887"
         style="text-align:center;text-anchor:middle;shape-inside:url(#rect853)"
         d="m 214.47786,166.8981 h -1.46667 q 0,2.10667 0,3.89334 0.0267,1.76 0.0533,3.46667 h 1.62667 q 2.56,0 3.81334,-0.93333 1.25333,-0.93334 1.25333,-2.69334 0,-1.86667 -1.25333,-2.8 -1.25334,-0.93334 -4.02667,-0.93334 z m 0.42666,-8.00001 h -1.84 q -0.0267,1.70667 -0.0533,3.46668 0,1.73333 0,3.30667 h 1.38667 q 2.42667,0 3.52,-0.82667 1.09334,-0.82667 1.09334,-2.64001 0,-1.81333 -1.04001,-2.56 -1.01333,-0.74667 -3.06667,-0.74667 z m -6.93334,-0.13333 v -1.09333 h 7.73334 q 2.77334,0 4.29334,1.22666 1.52001,1.22667 1.52001,3.12001 0,1.41333 -0.96001,2.58667 -0.96,1.17333 -3.17333,1.62667 2.66667,0.37333 3.84,1.57333 1.2,1.2 1.2,2.82667 0,1.2 -0.72,2.32001 -0.69333,1.12 -2.26667,1.84 -1.57333,0.72 -4.13334,0.72 h -7.33334 v -1.09334 l 2.45334,-0.29333 q 0.0533,-1.68 0.0533,-3.41334 0,-1.73333 0,-3.46667 v -1.30667 q 0,-1.73333 0,-3.44 0,-1.73334 -0.0533,-3.44001 z" />
      <path
         id="path889"
         style="text-align:center;text-anchor:middle;shape-inside:url(#rect853)"
         d="m 233.36664,169.24477 q 0,2.61334 1.04,3.86668 1.06667,1.22666 2.66667,1.22666 0.88,0 1.54667,-0.34666 0.69333,-0.37334 1.44,-1.20001 v -7.38667 q -0.90667,-0.8 -1.62667,-1.09334 -0.72,-0.29333 -1.38667,-0.29333 -0.98666,0 -1.84,0.56 -0.82667,0.53334 -1.33333,1.70667 -0.50667,1.14667 -0.50667,2.96 z m 6.96001,6.53335 -0.18667,-1.84001 q -0.69333,0.90667 -1.6,1.41334 -0.88,0.50667 -2.13334,0.50667 -1.62667,0 -2.85333,-0.82667 -1.22667,-0.82667 -1.92001,-2.29334 -0.66666,-1.49333 -0.66666,-3.44 0,-2.05334 0.74666,-3.57334 0.74667,-1.52 2.02667,-2.37334 1.28001,-0.85333 2.90667,-0.85333 0.93334,0 1.78667,0.37333 0.88,0.37334 1.70667,1.36 v -6.02667 l -2.26667,-0.26667 v -0.93333 l 4.16001,-1.2 0.37333,0.21333 -0.10667,3.78667 v 14.42669 l 2.16001,0.32 v 0.96 z" />
      <path
         id="path891"
         style="text-align:center;text-anchor:middle;shape-inside:url(#rect853)"
         d="m 255.70375,175.77812 q -0.96,0 -1.6,-0.56001 -0.64001,-0.56 -0.80001,-1.49333 -1.09333,1.06667 -1.92,1.6 -0.82667,0.53334 -2,0.53334 -1.46667,0 -2.53334,-0.82667 -1.04,-0.85334 -1.04,-2.50667 0,-0.77334 0.34667,-1.44 0.37333,-0.66667 1.33333,-1.30667 0.96001,-0.64 2.74667,-1.28 0.61334,-0.21334 1.41334,-0.45334 0.8,-0.24 1.6,-0.42666 v -0.66667 q 0,-1.94667 -0.58667,-2.58667 -0.58666,-0.64 -1.92,-0.64 -0.29333,0 -0.66667,0.0267 -0.34666,0.0267 -0.77333,0.13334 l -0.50667,1.73333 q -0.37333,1.28 -1.38667,1.28 -1.12,0 -1.25333,-1.09333 0.37333,-1.52 1.76,-2.4 1.41334,-0.90667 3.44001,-0.90667 2.10666,0 3.12,1.06667 1.01333,1.04 1.01333,3.57333 v 5.68001 q 0,0.85334 0.26667,1.22667 0.26667,0.34667 0.69334,0.34667 0.34666,0 0.58666,-0.16 0.24,-0.16 0.45334,-0.42667 l 0.53333,0.58667 q -0.48,0.77333 -1.06667,1.09333 -0.56,0.29334 -1.25333,0.29334 z m -7.52001,-3.65334 q 0,1.06667 0.61333,1.52 0.61334,0.45333 1.52,0.45333 0.4,0 0.74667,-0.10666 0.37334,-0.10667 0.88,-0.4 0.50667,-0.32 1.30667,-0.90667 v -4.08001 q -0.69333,0.18667 -1.36,0.42667 -0.66667,0.21333 -1.09334,0.37333 -1.14666,0.45334 -1.70666,0.93334 -0.56,0.48 -0.74667,0.93333 -0.16,0.45334 -0.16,0.85334 z" />
      <path
         id="path893"
         style="text-align:center;text-anchor:middle;shape-inside:url(#rect853)"
         d="m 259.11458,175.51145 v -0.96 l 1.97334,-0.37334 q 0.0267,-1.01333 0.0267,-2.18667 0.0267,-1.17333 0.0267,-2.08 v -1.28 q 0,-1.09334 -0.0267,-1.81334 0,-0.72 -0.0533,-1.52 l -2.10667,-0.24 v -0.93333 l 3.73334,-1.62667 0.4,0.26667 0.21334,2.13333 q 0.98666,-1.06667 2.26667,-1.73333 1.28,-0.66667 2.50666,-0.66667 1.73334,0 2.56001,1.17333 0.85333,1.14667 0.85333,3.76001 v 2.48 q 0,0.90667 0,2.08 0.0267,1.17334 0.0533,2.18667 l 1.86666,0.37334 v 0.96 h -6.18667 v -0.96 l 1.97334,-0.37334 q 0.0267,-0.98666 0.0267,-2.16 0.0267,-1.2 0.0267,-2.10667 v -2.26667 q 0,-1.84 -0.53333,-2.53333 -0.50667,-0.69334 -1.68001,-0.69334 -0.90666,0 -1.76,0.37333 -0.85333,0.37334 -1.86667,1.22667 v 3.89334 q 0,0.88 0,2.08 0.0267,1.17334 0.0533,2.18667 l 1.84,0.37334 v 0.96 z" />
      <path
         id="path895"
         style="text-align:center;text-anchor:middle;shape-inside:url(#rect853)"
         d="m 279.52711,175.85812 q -1.12,0 -2.05333,-0.26667 -0.93334,-0.24 -1.92,-0.74667 l -0.10667,-2.93334 h 1.46667 l 0.50667,2.32001 q 0.93333,0.42666 2.16,0.42666 1.52,0 2.24,-0.56 0.74667,-0.56 0.74667,-1.46667 0,-0.85333 -0.61334,-1.36 -0.61333,-0.53333 -1.86666,-0.96 l -1.22667,-0.45333 q -1.46667,-0.53334 -2.34667,-1.38667 -0.88,-0.85333 -0.88,-2.21334 0,-0.98666 0.53333,-1.84 0.53333,-0.85333 1.57334,-1.38667 1.04,-0.53333 2.53333,-0.53333 1.09334,0 1.97334,0.29333 0.90667,0.26667 1.76,0.8 l -0.10667,2.72001 h -1.38667 l -0.42666,-2.13334 q -0.90667,-0.45333 -1.84,-0.45333 -1.22667,0 -1.86667,0.50666 -0.61334,0.48 -0.61334,1.30667 0,0.88 0.53334,1.33334 0.56,0.45333 1.92,0.96 l 0.82667,0.29333 q 2,0.74667 2.82667,1.70667 0.85333,0.96 0.85333,2.21334 0,1.01333 -0.58667,1.89333 -0.58666,0.85334 -1.73333,1.38667 -1.14667,0.53334 -2.88001,0.53334 z" />
      <path
         id="path897"
         style="text-align:center;text-anchor:middle;shape-inside:url(#rect853)"
         d="m 292.62088,175.51145 v -0.96 l 2.13333,-0.37334 q 0.0267,-1.09333 0.0267,-2.13333 0.0267,-1.06667 0.0267,-2.13334 v -11.70668 l -2.18667,-0.26667 v -0.93333 l 4.16,-1.2 0.37334,0.21333 -0.10667,3.78667 v 10.10668 q 0,1.06667 0,2.13334 0.0267,1.06667 0.0533,2.13333 l 2.13334,0.37334 v 0.96 z" />
      <path
         id="path899"
         style="text-align:center;text-anchor:middle;shape-inside:url(#rect853)"
         d="m 307.0963,163.72477 q -0.74666,0 -1.52,0.42666 -0.74667,0.42667 -1.30667,1.36001 -0.53333,0.93333 -0.69333,2.48 h 4.85334 q 0.96,0 1.25333,-0.4 0.32,-0.4 0.32,-0.98667 0,-0.77333 -0.4,-1.41333 -0.37333,-0.66667 -1.04,-1.06667 -0.64,-0.4 -1.46667,-0.4 z m -0.0267,12.13335 q -2.69334,0 -4.32001,-1.73334 -1.62667,-1.76 -1.62667,-4.82667 0,-2.05334 0.82667,-3.57334 0.85333,-1.52 2.24,-2.37334 1.41334,-0.85333 3.06667,-0.85333 1.38667,0 2.50667,0.61333 1.12001,0.61334 1.78667,1.76 0.66667,1.12001 0.66667,2.74668 0,0.45333 -0.0533,0.85333 -0.0533,0.37333 -0.13334,0.64 h -8.50667 q 0.0533,2.45334 1.22666,3.73334 1.17334,1.28 3.09334,1.28 1.28,0 2.13334,-0.50667 0.85333,-0.53333 1.57333,-1.36 l 0.64,0.50667 q -0.74666,1.41333 -2.02667,2.26667 -1.28,0.82667 -3.09333,0.82667 z" />
      <path
         id="path901"
         style="text-align:center;text-anchor:middle;shape-inside:url(#rect853)"
         d="m 143.3261,203.51148 q 1.28001,0 2.00001,-0.96 0.72,-0.96 0.72,-2.42667 0,-1.41333 -0.69334,-2.29333 -0.66666,-0.90667 -1.92,-0.90667 -1.25333,0 -1.97333,0.93333 -0.72001,0.90667 -0.72001,2.37334 0,1.46667 0.66667,2.37333 0.69334,0.90667 1.92,0.90667 z m 0.0533,1.06667 q -1.04,0 -1.97334,-0.29333 -0.66667,0.85333 -0.66667,1.70667 0,0.53333 0.29334,0.85333 0.32,0.32 1.25333,0.32 h 3.49334 q 2.21334,0 3.25334,0.90667 1.04,0.90667 1.04,2.53333 0,1.14667 -0.74667,2.21334 -0.72,1.06667 -2.18667,1.73334 -1.46667,0.66666 -3.65334,0.66666 -2.90667,0 -4.21333,-0.90666 -1.30667,-0.90667 -1.30667,-2.32001 0,-0.85333 0.56,-1.6 0.58667,-0.72 2.05333,-1.44 -1.76,-0.48 -1.76,-2.02667 0,-0.64 0.4,-1.33334 0.42667,-0.69333 1.41334,-1.62666 -0.96,-0.53334 -1.52,-1.46667 -0.53334,-0.93334 -0.53334,-2.29334 0,-2.10667 1.36,-3.22667 1.38667,-1.14667 3.46667,-1.14667 2.10667,0 3.38668,1.04 l 3.01333,-1.04 0.4,0.26667 v 1.68 h -2.61333 q 0.61333,0.98667 0.61333,2.42667 0,2.10667 -1.38667,3.25334 -1.36,1.12 -3.44,1.12 z m -3.22667,6.98668 q 0,1.30666 0.93333,1.86666 0.93334,0.56001 2.50667,0.56001 2.18667,0 3.33334,-0.80001 1.14667,-0.77333 1.14667,-1.89333 0,-0.88 -0.61334,-1.49334 -0.61333,-0.58666 -2.05333,-0.58666 h -3.12001 q -0.26666,0 -0.56,-0.0267 -0.26666,0 -0.53333,-0.0267 -0.56,0.58667 -0.8,1.14667 -0.24,0.58667 -0.24,1.25334 z" />
      <path
         id="path903"
         style="text-align:center;text-anchor:middle;shape-inside:url(#rect853)"
         d="m 151.21445,208.84482 v -0.96 l 2.13333,-0.37333 q 0.0267,-1.09334 0.0267,-2.13334 0.0267,-1.06667 0.0267,-2.13333 v -11.70669 l -2.18667,-0.26666 v -0.93334 l 4.16,-1.2 0.37334,0.21333 -0.10667,3.78668 v 10.10668 q 0,1.06666 0,2.13333 0.0267,1.06667 0.0533,2.13334 l 2.13334,0.37333 v 0.96 z" />
      <path
         id="path905"
         style="text-align:center;text-anchor:middle;shape-inside:url(#rect853)"
         d="m 165.82322,209.19149 q -1.54667,0 -2.96001,-0.72 -1.38667,-0.74667 -2.26667,-2.21334 -0.88,-1.49333 -0.88,-3.68 0,-2.21334 0.88,-3.70667 0.88,-1.52001 2.26667,-2.26667 1.41334,-0.77334 2.96001,-0.77334 1.54667,0 2.93333,0.77334 1.41334,0.74666 2.29334,2.26667 0.90667,1.49333 0.90667,3.70667 0,2.18667 -0.90667,3.68 -0.88,1.46667 -2.29334,2.21334 -1.38666,0.72 -2.93333,0.72 z m 0,-1.2 q 1.73333,0 2.66667,-1.36 0.93333,-1.38667 0.93333,-4.05334 0,-2.69334 -0.93333,-4.10667 -0.93334,-1.41334 -2.66667,-1.41334 -1.73334,0 -2.66667,1.41334 -0.90667,1.41333 -0.90667,4.10667 0,2.66667 0.90667,4.05334 0.93333,1.36 2.66667,1.36 z" />
      <path
         id="path907"
         style="text-align:center;text-anchor:middle;shape-inside:url(#rect853)"
         d="m 178.48531,209.19149 q -1.12,0 -2.05333,-0.26667 -0.93334,-0.24 -1.92,-0.74667 l -0.10667,-2.93333 h 1.46667 l 0.50666,2.32 q 0.93334,0.42667 2.16001,0.42667 1.52,0 2.24,-0.56 0.74667,-0.56 0.74667,-1.46667 0,-0.85334 -0.61334,-1.36 -0.61333,-0.53334 -1.86667,-0.96 l -1.22666,-0.45334 q -1.46667,-0.53333 -2.34667,-1.38667 -0.88,-0.85333 -0.88,-2.21333 0,-0.98667 0.53333,-1.84001 0.53333,-0.85333 1.57334,-1.38666 1.04,-0.53334 2.53333,-0.53334 1.09334,0 1.97334,0.29334 0.90667,0.26666 1.76,0.8 l -0.10667,2.72 h -1.38667 l -0.42666,-2.13334 q -0.90667,-0.45333 -1.84,-0.45333 -1.22667,0 -1.86667,0.50667 -0.61334,0.48 -0.61334,1.30667 0,0.88 0.53334,1.33333 0.56,0.45334 1.92,0.96 l 0.82667,0.29334 q 2,0.74666 2.82667,1.70667 0.85333,0.96 0.85333,2.21333 0,1.01334 -0.58667,1.89334 -0.58666,0.85333 -1.73333,1.38667 -1.14667,0.53333 -2.88001,0.53333 z" />
      <path
         id="path909"
         style="text-align:center;text-anchor:middle;shape-inside:url(#rect853)"
         d="m 190.04783,209.19149 q -1.12,0 -2.05334,-0.26667 -0.93333,-0.24 -1.92,-0.74667 l -0.10667,-2.93333 h 1.46667 l 0.50667,2.32 q 0.93333,0.42667 2.16,0.42667 1.52,0 2.24001,-0.56 0.74666,-0.56 0.74666,-1.46667 0,-0.85334 -0.61333,-1.36 -0.61333,-0.53334 -1.86667,-0.96 l -1.22667,-0.45334 q -1.46667,-0.53333 -2.34667,-1.38667 -0.88,-0.85333 -0.88,-2.21333 0,-0.98667 0.53334,-1.84001 0.53333,-0.85333 1.57333,-1.38666 1.04,-0.53334 2.53334,-0.53334 1.09333,0 1.97333,0.29334 0.90667,0.26666 1.76001,0.8 l -0.10667,2.72 h -1.38667 l -0.42667,-2.13334 q -0.90667,-0.45333 -1.84,-0.45333 -1.22667,0 -1.86667,0.50667 -0.61333,0.48 -0.61333,1.30667 0,0.88 0.53333,1.33333 0.56,0.45334 1.92,0.96 l 0.82667,0.29334 q 2,0.74666 2.82667,1.70667 0.85334,0.96 0.85334,2.21333 0,1.01334 -0.58667,1.89334 -0.58667,0.85333 -1.73334,1.38667 -1.14667,0.53333 -2.88,0.53333 z" />
      <path
         id="path911"
         style="text-align:center;text-anchor:middle;shape-inside:url(#rect853)"
         d="m 207.37035,209.11149 q -0.96,0 -1.6,-0.56 -0.64,-0.56 -0.8,-1.49334 -1.09334,1.06667 -1.92,1.60001 -0.82667,0.53333 -2.00001,0.53333 -1.46666,0 -2.53333,-0.82667 -1.04,-0.85333 -1.04,-2.50667 0,-0.77333 0.34666,-1.44 0.37334,-0.66667 1.33334,-1.30667 0.96,-0.64 2.74667,-1.28 0.61333,-0.21333 1.41333,-0.45333 0.8,-0.24 1.60001,-0.42667 v -0.66667 q 0,-1.94667 -0.58667,-2.58667 -0.58667,-0.64 -1.92,-0.64 -0.29334,0 -0.66667,0.0267 -0.34667,0.0267 -0.77334,0.13333 l -0.50666,1.73334 q -0.37334,1.28 -1.38667,1.28 -1.12,0 -1.25334,-1.09334 0.37334,-1.52 1.76001,-2.4 1.41333,-0.90667 3.44,-0.90667 2.10667,0 3.12,1.06667 1.01334,1.04 1.01334,3.57334 v 5.68001 q 0,0.85333 0.26667,1.22666 0.26666,0.34667 0.69333,0.34667 0.34667,0 0.58667,-0.16 0.24,-0.16 0.45333,-0.42667 l 0.53333,0.58667 q -0.48,0.77334 -1.06666,1.09334 -0.56,0.29333 -1.25334,0.29333 z m -7.52001,-3.65334 q 0,1.06667 0.61334,1.52 0.61333,0.45334 1.52,0.45334 0.4,0 0.74667,-0.10667 0.37333,-0.10667 0.88,-0.4 0.50666,-0.32 1.30667,-0.90667 v -4.08 q -0.69334,0.18666 -1.36001,0.42666 -0.66666,0.21334 -1.09333,0.37334 -1.14667,0.45333 -1.70667,0.93333 -0.56,0.48 -0.74667,0.93334 -0.16,0.45333 -0.16,0.85333 z" />
      <path
         id="path913"
         style="text-align:center;text-anchor:middle;shape-inside:url(#rect853)"
         d="m 210.80411,208.84482 v -0.96 l 2,-0.37333 q 0.0267,-1.01334 0.0267,-2.18667 0.0267,-1.2 0.0267,-2.08 v -1.25334 q 0,-1.09333 -0.0267,-1.81334 0,-0.74666 -0.0533,-1.54666 l -2.13333,-0.24 v -0.93334 l 4.10667,-1.62667 0.4,0.26667 -0.08,3.62667 v 3.52001 q 0,0.88 0,2.08 0.0267,1.17333 0.0533,2.18667 l 1.86667,0.37333 v 0.96 z m 3.14667,-15.94668 q -0.74667,0 -1.28,-0.48001 -0.50667,-0.48 -0.50667,-1.22666 0,-0.77334 0.50667,-1.22667 0.53333,-0.48 1.28,-0.48 0.74667,0 1.25333,0.48 0.53334,0.45333 0.53334,1.22667 0,0.74666 -0.53334,1.22666 -0.50666,0.48001 -1.25333,0.48001 z" />
      <path
         id="path915"
         style="text-align:center;text-anchor:middle;shape-inside:url(#rect853)"
         d="m 218.95953,208.84482 v -0.96 l 1.92001,-0.34667 q 0.0267,-1.01333 0.0267,-2.18667 0.0267,-1.2 0.0267,-2.10666 v -1.28001 q 0,-1.09333 -0.0267,-1.81333 0,-0.72 -0.0533,-1.52 l -2.10667,-0.24 v -0.93334 l 3.73334,-1.62667 0.4,0.26667 0.29333,3.14667 q 0.66667,-1.6 1.70667,-2.50667 1.06667,-0.90667 2.13334,-0.90667 0.61333,0 1.14666,0.26667 0.53334,0.26667 0.77334,0.72 0,1.94667 -1.57334,1.94667 -0.45333,0 -0.85333,-0.16 -0.4,-0.18667 -0.77334,-0.50667 l -0.32,-0.29333 q -0.8,0.58667 -1.33333,1.44 -0.53333,0.85333 -0.88,2 v 2.00001 q 0,0.88 0,2.05333 0.0267,1.17334 0.0533,2.18667 l 2.18667,0.4 v 0.96 z" />
      <path
         id="path917"
         style="text-align:center;text-anchor:middle;shape-inside:url(#rect853)"
         d="m 236.05455,197.05814 q -0.74666,0 -1.52,0.42667 -0.74667,0.42667 -1.30667,1.36 -0.53333,0.93333 -0.69333,2.48 h 4.85334 q 0.96,0 1.25333,-0.4 0.32,-0.4 0.32,-0.98667 0,-0.77333 -0.4,-1.41333 -0.37333,-0.66667 -1.04,-1.06667 -0.64,-0.4 -1.46667,-0.4 z m -0.0267,12.13335 q -2.69334,0 -4.32001,-1.73334 -1.62667,-1.76 -1.62667,-4.82667 0,-2.05333 0.82667,-3.57334 0.85333,-1.52 2.24,-2.37333 1.41334,-0.85334 3.06667,-0.85334 1.38667,0 2.50667,0.61334 1.12,0.61333 1.78667,1.76 0.66667,1.12 0.66667,2.74667 0,0.45333 -0.0533,0.85333 -0.0533,0.37334 -0.13334,0.64 h -8.50667 q 0.0533,2.45334 1.22666,3.73334 1.17334,1.28 3.09334,1.28 1.28,0 2.13334,-0.50666 0.85333,-0.53334 1.57333,-1.36001 l 0.64,0.50667 q -0.74666,1.41334 -2.02667,2.26667 -1.28,0.82667 -3.09333,0.82667 z" />
      <path
         id="path919"
         style="text-align:center;text-anchor:middle;shape-inside:url(#rect853)"
         d="m 252.27291,202.57815 q 0,2.61333 1.04,3.86667 1.06667,1.22667 2.66667,1.22667 0.88,0 1.54667,-0.34667 0.69333,-0.37333 1.44,-1.2 v -7.38668 q -0.90667,-0.8 -1.62667,-1.09333 -0.72,-0.29334 -1.38667,-0.29334 -0.98666,0 -1.84,0.56001 -0.82667,0.53333 -1.33333,1.70666 -0.50667,1.14667 -0.50667,2.96001 z m 6.96001,6.53334 -0.18667,-1.84 q -0.69333,0.90666 -1.6,1.41333 -0.88,0.50667 -2.13334,0.50667 -1.62667,0 -2.85333,-0.82667 -1.22667,-0.82667 -1.92001,-2.29333 -0.66666,-1.49334 -0.66666,-3.44001 0,-2.05333 0.74666,-3.57334 0.74667,-1.52 2.02667,-2.37333 1.28001,-0.85334 2.90667,-0.85334 0.93334,0 1.78667,0.37334 0.88,0.37333 1.70667,1.36 v -6.02668 l -2.26667,-0.26666 v -0.93334 l 4.16001,-1.2 0.37333,0.21333 -0.10667,3.78668 v 14.42668 l 2.16001,0.32 v 0.96 z" />
      <path
         id="path921"
         style="text-align:center;text-anchor:middle;shape-inside:url(#rect853)"
         d="m 270.95043,197.05814 q -0.74666,0 -1.52,0.42667 -0.74666,0.42667 -1.30667,1.36 -0.53333,0.93333 -0.69333,2.48 h 4.85334 q 0.96,0 1.25333,-0.4 0.32001,-0.4 0.32001,-0.98667 0,-0.77333 -0.40001,-1.41333 -0.37333,-0.66667 -1.04,-1.06667 -0.64,-0.4 -1.46667,-0.4 z m -0.0267,12.13335 q -2.69334,0 -4.32001,-1.73334 -1.62667,-1.76 -1.62667,-4.82667 0,-2.05333 0.82667,-3.57334 0.85334,-1.52 2.24,-2.37333 1.41334,-0.85334 3.06667,-0.85334 1.38667,0 2.50667,0.61334 1.12001,0.61333 1.78667,1.76 0.66667,1.12 0.66667,2.74667 0,0.45333 -0.0533,0.85333 -0.0533,0.37334 -0.13334,0.64 h -8.50667 q 0.0533,2.45334 1.22667,3.73334 1.17333,1.28 3.09333,1.28 1.28,0 2.13334,-0.50666 0.85333,-0.53334 1.57333,-1.36001 l 0.64,0.50667 q -0.74666,1.41334 -2.02666,2.26667 -1.28001,0.82667 -3.09334,0.82667 z" />
      <path
         id="path923"
         style="text-align:center;text-anchor:middle;shape-inside:url(#rect853)"
         d="m 136.9436,242.1782 v -0.96 l 2.13333,-0.37334 q 0.0267,-1.09333 0.0267,-2.13333 0.0267,-1.06667 0.0267,-2.13334 v -11.70668 l -2.18667,-0.26667 v -0.93333 l 4.16,-1.20001 0.37334,0.21334 -0.10667,3.78667 v 10.10668 q 0,1.06667 0,2.13334 0.0267,1.06666 0.0533,2.13333 l 2.13334,0.37334 v 0.96 z" />
      <path
         id="path925"
         style="text-align:center;text-anchor:middle;shape-inside:url(#rect853)"
         d="m 146.17819,222.52484 q 0.64,0 0.98667,0.4 0.37333,0.4 0.37333,1.28 0,0.4 -0.08,1.04 -0.0533,0.64 -0.16,1.36 -0.10666,0.69334 -0.21333,1.30667 -0.08,0.61334 -0.13333,0.93334 l -0.29334,1.89333 h -0.98667 l -0.29333,-1.89333 q -0.0533,-0.32 -0.16,-0.93334 -0.08,-0.61333 -0.18667,-1.30667 -0.10666,-0.72 -0.18666,-1.36 -0.0533,-0.64 -0.0533,-1.04 0,-0.88 0.37334,-1.28 0.37333,-0.4 1.01333,-0.4 z" />
      <path
         id="path927"
         style="text-align:center;text-anchor:middle;shape-inside:url(#rect853)"
         d="m 158.88071,242.44486 q -0.96,0 -1.6,-0.56 -0.64001,-0.56 -0.80001,-1.49333 -1.09333,1.06667 -1.92,1.6 -0.82667,0.53333 -2,0.53333 -1.46667,0 -2.53334,-0.82666 -1.04,-0.85334 -1.04,-2.50667 0,-0.77334 0.34667,-1.44001 0.37333,-0.66666 1.33333,-1.30666 0.96,-0.64001 2.74667,-1.28001 0.61334,-0.21333 1.41334,-0.45333 0.8,-0.24 1.6,-0.42667 v -0.66666 q 0,-1.94667 -0.58667,-2.58667 -0.58666,-0.64001 -1.92,-0.64001 -0.29333,0 -0.66667,0.0267 -0.34666,0.0267 -0.77333,0.13333 l -0.50667,1.73334 q -0.37333,1.28 -1.38667,1.28 -1.12,0 -1.25333,-1.09333 0.37333,-1.52 1.76,-2.40001 1.41334,-0.90666 3.44001,-0.90666 2.10666,0 3.12,1.06666 1.01333,1.04001 1.01333,3.57334 v 5.68001 q 0,0.85333 0.26667,1.22667 0.26667,0.34666 0.69333,0.34666 0.34667,0 0.58667,-0.16 0.24,-0.16 0.45334,-0.42666 l 0.53333,0.58666 q -0.48,0.77334 -1.06667,1.09334 -0.56,0.29333 -1.25333,0.29333 z m -7.52001,-3.65333 q 0,1.06666 0.61333,1.52 0.61334,0.45333 1.52,0.45333 0.4,0 0.74667,-0.10667 0.37334,-0.10666 0.88,-0.4 0.50667,-0.32 1.30667,-0.90666 v -4.08001 q -0.69333,0.18667 -1.36,0.42667 -0.66667,0.21333 -1.09334,0.37333 -1.14666,0.45334 -1.70666,0.93334 -0.56001,0.48 -0.74667,0.93333 -0.16,0.45333 -0.16,0.85334 z" />
      <path
         id="path929"
         style="text-align:center;text-anchor:middle;shape-inside:url(#rect853)"
         d="m 162.31446,242.1782 v -0.96 l 2,-0.37334 q 0.0267,-1.01333 0.0267,-2.18667 0.0267,-1.2 0.0267,-2.08 v -1.25334 q 0,-1.09333 -0.0267,-1.81333 0,-0.74667 -0.0533,-1.54667 l -2.13334,-0.24 v -0.93333 l 4.10667,-1.62667 0.4,0.26666 -0.08,3.62667 v 3.52001 q 0,0.88 0,2.08 0.0267,1.17334 0.0533,2.18667 l 1.86667,0.37334 v 0.96 z m 3.14667,-15.94669 q -0.74667,0 -1.28,-0.48 -0.50667,-0.48 -0.50667,-1.22667 0,-0.77333 0.50667,-1.22667 0.53333,-0.48 1.28,-0.48 0.74667,0 1.25334,0.48 0.53333,0.45334 0.53333,1.22667 0,0.74667 -0.53333,1.22667 -0.50667,0.48 -1.25334,0.48 z" />
      <path
         id="path931"
         style="text-align:center;text-anchor:middle;shape-inside:url(#rect853)"
         d="m 172.94989,235.91152 q 0,2.61334 1.04,3.86667 1.06667,1.22667 2.66667,1.22667 0.88001,0 1.54667,-0.34667 0.69334,-0.37333 1.44,-1.2 v -7.38667 q -0.90666,-0.8 -1.62666,-1.09334 -0.72,-0.29333 -1.38667,-0.29333 -0.98667,0 -1.84,0.56 -0.82667,0.53333 -1.33334,1.70667 -0.50667,1.14667 -0.50667,2.96 z m 6.96001,6.53334 -0.18667,-1.84 q -0.69333,0.90667 -1.6,1.41334 -0.88,0.50666 -2.13333,0.50666 -1.62667,0 -2.85334,-0.82666 -1.22667,-0.82667 -1.92,-2.29334 -0.66667,-1.49334 -0.66667,-3.44 0,-2.05334 0.74667,-3.57334 0.74667,-1.52 2.02667,-2.37334 1.28,-0.85333 2.90667,-0.85333 0.93333,0 1.78667,0.37333 0.88,0.37333 1.70666,1.36 v -6.02667 l -2.26666,-0.26667 v -0.93333 l 4.16,-1.20001 0.37333,0.21334 -0.10666,3.78667 v 14.42668 l 2.16,0.32001 v 0.96 z" />
      <path
         id="path933"
         style="text-align:center;text-anchor:middle;shape-inside:url(#rect853)"
         d="m 191.62741,230.39151 q -0.74666,0 -1.52,0.42667 -0.74667,0.42667 -1.30667,1.36 -0.53333,0.93334 -0.69333,2.48001 h 4.85334 q 0.96,0 1.25333,-0.4 0.32,-0.4 0.32,-0.98667 0,-0.77334 -0.4,-1.41334 -0.37333,-0.66666 -1.04,-1.06666 -0.64,-0.40001 -1.46667,-0.40001 z m -0.0267,12.13335 q -2.69334,0 -4.32001,-1.73333 -1.62667,-1.76 -1.62667,-4.82667 0,-2.05334 0.82667,-3.57334 0.85334,-1.52 2.24,-2.37334 1.41334,-0.85333 3.06667,-0.85333 1.38667,0 2.50667,0.61333 1.12001,0.61333 1.78667,1.76 0.66667,1.12 0.66667,2.74667 0,0.45334 -0.0533,0.85334 -0.0533,0.37333 -0.13334,0.64 h -8.50667 q 0.0533,2.45333 1.22666,3.73334 1.17334,1.28 3.09334,1.28 1.28,0 2.13334,-0.50667 0.85333,-0.53333 1.57333,-1.36 l 0.64,0.50667 q -0.74666,1.41333 -2.02667,2.26667 -1.28,0.82666 -3.09333,0.82666 z" />
      <path
         id="path935"
         style="text-align:center;text-anchor:middle;shape-inside:url(#rect853)"
         d="m 207.84577,235.91152 q 0,2.61334 1.04,3.86667 1.06667,1.22667 2.66667,1.22667 0.88,0 1.54667,-0.34667 0.69333,-0.37333 1.44,-1.2 v -7.38667 q -0.90667,-0.8 -1.62667,-1.09334 -0.72,-0.29333 -1.38667,-0.29333 -0.98667,0 -1.84,0.56 -0.82667,0.53333 -1.33334,1.70667 -0.50666,1.14667 -0.50666,2.96 z m 6.96001,6.53334 -0.18667,-1.84 q -0.69334,0.90667 -1.6,1.41334 -0.88,0.50666 -2.13334,0.50666 -1.62667,0 -2.85334,-0.82666 -1.22666,-0.82667 -1.92,-2.29334 -0.66667,-1.49334 -0.66667,-3.44 0,-2.05334 0.74667,-3.57334 0.74667,-1.52 2.02667,-2.37334 1.28,-0.85333 2.90667,-0.85333 0.93334,0 1.78667,0.37333 0.88,0.37333 1.70667,1.36 v -6.02667 l -2.26667,-0.26667 v -0.93333 l 4.16,-1.20001 0.37334,0.21334 -0.10667,3.78667 v 14.42668 l 2.16,0.32001 v 0.96 z" />
      <path
         id="path937"
         style="text-align:center;text-anchor:middle;shape-inside:url(#rect853)"
         d="m 226.52329,230.39151 q -0.74667,0 -1.52,0.42667 -0.74667,0.42667 -1.30667,1.36 -0.53333,0.93334 -0.69333,2.48001 h 4.85334 q 0.96,0 1.25333,-0.4 0.32,-0.4 0.32,-0.98667 0,-0.77334 -0.4,-1.41334 -0.37333,-0.66666 -1.04,-1.06666 -0.64,-0.40001 -1.46667,-0.40001 z m -0.0267,12.13335 q -2.69334,0 -4.32001,-1.73333 -1.62667,-1.76 -1.62667,-4.82667 0,-2.05334 0.82667,-3.57334 0.85333,-1.52 2.24,-2.37334 1.41334,-0.85333 3.06667,-0.85333 1.38667,0 2.50667,0.61333 1.12,0.61333 1.78667,1.76 0.66667,1.12 0.66667,2.74667 0,0.45334 -0.0533,0.85334 -0.0533,0.37333 -0.13334,0.64 h -8.50668 q 0.0533,2.45333 1.22667,3.73334 1.17334,1.28 3.09334,1.28 1.28,0 2.13334,-0.50667 0.85333,-0.53333 1.57333,-1.36 l 0.64,0.50667 q -0.74667,1.41333 -2.02667,2.26667 -1.28,0.82666 -3.09333,0.82666 z" />
      <path
         id="path939"
         style="text-align:center;text-anchor:middle;shape-inside:url(#rect853)"
         d="m 249.38166,242.5782 q -2.66667,0 -4.69334,-1.2 -2.02667,-1.22667 -3.17334,-3.33334 -1.12,-2.10667 -1.12,-4.80001 0,-2.69334 1.14667,-4.77334 1.14667,-2.10667 3.17333,-3.30667 2.05334,-1.22667 4.77334,-1.22667 1.65334,0 2.93334,0.32 1.30667,0.29334 2.42667,0.93334 l 0.10667,3.89334 h -1.65334 l -0.53333,-3.04001 q -1.38667,-0.77333 -3.04001,-0.77333 -1.84,0 -3.30667,0.93333 -1.44,0.93334 -2.29333,2.72001 -0.82667,1.76 -0.82667,4.32 0,3.81334 1.76,5.89334 1.76,2.08001 4.82667,2.08001 1.52001,0 2.85334,-0.53334 v -0.85333 q 0,-1.2 -0.0267,-2.40001 0,-1.22666 -0.0267,-2.42667 l -2.77334,-0.24 v -1.06666 h 7.01334 v 1.06666 l -1.62667,0.16 q -0.0267,1.20001 -0.0533,2.42667 0,1.22667 0,2.48001 v 1.17333 q -1.38667,0.72 -2.8,1.14667 -1.41334,0.42667 -3.06667,0.42667 z" />
      <path
         id="path941"
         style="text-align:center;text-anchor:middle;shape-inside:url(#rect853)"
         d="m 269.37835,225.43151 v -1.09334 h 7.52001 v 1.09334 l -2.45334,0.29333 q -0.0267,1.68 -0.0533,3.41334 0,1.73334 0,3.46667 v 1.30667 q 0,1.70667 0,3.44 0.0267,1.70667 0.0533,3.44001 l 2.45334,0.29333 v 1.09334 h -7.52001 v -1.09334 l 2.45333,-0.29333 q 0.0533,-1.70667 0.0533,-3.46667 0,-1.78667 0,-3.65334 h -8.61335 q 0,2.02667 0,3.76 0.0267,1.73334 0.0533,3.38667 l 2.42667,0.26667 v 1.09334 h -7.52001 v -1.09334 l 2.45333,-0.29333 q 0.0533,-1.68 0.0533,-3.41334 0,-1.73334 0,-3.46667 v -1.30667 q 0,-1.73333 0,-3.44 0,-1.73334 -0.0533,-3.44001 l -2.45333,-0.29333 v -1.09334 h 7.52001 v 1.09334 l -2.42667,0.26667 q -0.0267,1.70666 -0.0533,3.41333 0,1.70667 0,3.30667 h 8.61335 q 0,-1.76 0,-3.41333 0,-1.65334 -0.0533,-3.28001 z" />
    </g>
  </g>
</svg>
