<?xml version="1.0" encoding="UTF-8" standalone="no"?>
<svg
   xmlns:dc="http://purl.org/dc/elements/1.1/"
   xmlns:cc="http://creativecommons.org/ns#"
   xmlns:rdf="http://www.w3.org/1999/02/22-rdf-syntax-ns#"
   xmlns:svg="http://www.w3.org/2000/svg"
   xmlns="http://www.w3.org/2000/svg"
   xmlns:xlink="http://www.w3.org/1999/xlink"
   xmlns:sodipodi="http://sodipodi.sourceforge.net/DTD/sodipodi-0.dtd"
   xmlns:inkscape="http://www.inkscape.org/namespaces/inkscape"
   sodipodi:docname="livre.svg"
   inkscape:version="1.0 (4035a4fb49, 2020-05-01)"
   version="1.1"
   id="svg2"
   height="64.000786"
   width="64.106644">
  <defs
     id="defs14">
    <linearGradient
       x1="407.87"
       x2="456.39999"
       gradientTransform="matrix(0.3703081,0,0,1.1662877,527.58409,-7.1337488)"
       y1="149.38"
       gradientUnits="userSpaceOnUse"
       xlink:href="#linearGradient795"
       y2="147.35001"
       id="linearGradient801" />
    <linearGradient
       id="linearGradient795">
      <stop
         id="stop7"
         offset="0"
         stop-color="#d5dfff" />
      <stop
         id="stop9"
         offset="1"
         stop-color="#FFF" />
    </linearGradient>
    <linearGradient
       gradientTransform="matrix(0.99614143,0,0,2.2525522,703.84172,-75.047171)"
       y2="107.764"
       x2="92.551102"
       y1="111.276"
       x1="103.083"
       gradientUnits="userSpaceOnUse"
       id="grad">
      <stop
         id="stop7-8"
         offset="0"
         stop-color="#f00" />
      <stop
         id="stop9-0"
         offset="1"
         stop-color="#ff0" />
    </linearGradient>
    <linearGradient
       gradientUnits="userSpaceOnUse"
       id="gradbase">
      <stop
         id="stop7-0"
         offset="0"
         stop-opacity="0.9961"
         stop-color="#a43907" />
      <stop
         id="stop9-3"
         offset="1"
         stop-color="#fff" />
    </linearGradient>
  </defs>
  <sodipodi:namedview
     inkscape:document-rotation="0"
     fit-margin-bottom="0"
     fit-margin-right="0"
     fit-margin-left="0"
     fit-margin-top="0"
     inkscape:current-layer="svg2"
     inkscape:window-maximized="1"
     inkscape:window-y="-8"
     inkscape:window-x="-8"
     inkscape:cy="45.829786"
     inkscape:cx="46.105772"
     inkscape:zoom="7.6457143"
     showgrid="false"
     id="namedview12"
     inkscape:window-height="1017"
     inkscape:window-width="1920"
     inkscape:pageshadow="2"
     inkscape:pageopacity="0"
     guidetolerance="10"
     gridtolerance="10"
     objecttolerance="10"
     borderopacity="1"
     bordercolor="#666666"
     pagecolor="#ffffff" />
  <metadata
     id="metadata4">
    <rdf:RDF>
      <cc:Work
         rdf:about="">
        <dc:format>image/svg+xml</dc:format>
        <dc:type
           rdf:resource="http://purl.org/dc/dcmitype/StillImage" />
        <dc:title></dc:title>
      </cc:Work>
    </rdf:RDF>
  </metadata>
  <g
     transform="matrix(0.10987522,0,0,0.0914297,9.5598617e-7,-4.5495359e-5)"
     id="g849">
    <path
       id="path89"
       d="m 5.5320915,108.06472 c 0,-30.238509 24.3412835,-42.785334 53.1082555,-64.172471 C 93.304549,18.079423 107.32292,5.5325978 138.30273,5.5325978 h 402.73761 c 29.50827,0 36.87704,7.4130272 36.87704,35.4055042 V 587.51057 c 0,27.29543 -6.63853,35.4055 -36.87704,35.4055 H 5.5320915 V 102.15975"
       inkscape:connector-curvature="0"
       style="fill:#cccccc;fill-opacity:1;stroke:#000000;stroke-width:11.0642" />
    <path
       id="path91"
       d="m 441.46236,670.86508 c 53.10826,0 43.51558,-1.43834 80.40369,-38.35965 39.08989,-38.35965 35.4055,-35.4055 35.4055,-70.811 V 60.854804 c 0,-25.812825 -6.63853,-33.19266 -33.93396,-33.19266 H 150.84181 c -29.50827,0 -42.04403,11.805523 -73.765153,36.146807 C 50.522529,83.724547 28.394089,96.260308 28.394089,124.29704 V 670.86951 H 441.45904 Z"
       inkscape:connector-curvature="0"
       style="fill:#e5e5e5;stroke:#000000;stroke-width:11.0642" />
    <path
       id="path93"
       d="m 481.29355,659.06288 c 0,27.29543 -6.63853,35.4055 -36.87704,35.4055 H 41.678898 c -30.238513,0 -36.1468065,-7.41302 -36.1468065,-35.4055 V 111.75354 c 0,-27.295435 6.6385315,-35.405509 36.1468065,-35.405509 H 444.41651 c 30.23851,0 36.87704,7.413028 36.87704,35.405509 z"
       inkscape:connector-curvature="0"
       style="fill:#cccccc;fill-opacity:1;stroke:#000000;stroke-width:11.0642" />
  </g>
</svg>
