<?xml version="1.0" encoding="UTF-8" standalone="no"?>
<!-- Created with Inkscape (http://www.inkscape.org/) -->

<svg
   xmlns:dc="http://purl.org/dc/elements/1.1/"
   xmlns:cc="http://creativecommons.org/ns#"
   xmlns:rdf="http://www.w3.org/1999/02/22-rdf-syntax-ns#"
   xmlns:svg="http://www.w3.org/2000/svg"
   xmlns="http://www.w3.org/2000/svg"
   xmlns:sodipodi="http://sodipodi.sourceforge.net/DTD/sodipodi-0.dtd"
   xmlns:inkscape="http://www.inkscape.org/namespaces/inkscape"
   width="63.893501mm"
   height="64mm"
   viewBox="0 0 63.893501 64"
   version="1.1"
   id="svg840"
   inkscape:version="0.92.4 (5da689c313, 2019-01-14)"
   sodipodi:docname="male.svg"
   inkscape:export-filename="C:\Users\dapam\Documents\C\Csharp\source\repos\dapam873\GH\GH\bin\Debug\images\male.png"
   inkscape:export-xdpi="22"
   inkscape:export-ydpi="22">
  <defs
     id="defs834" />
  <sodipodi:namedview
     id="base"
     pagecolor="#ffffff"
     bordercolor="#666666"
     borderopacity="1.0"
     inkscape:pageopacity="0.0"
     inkscape:pageshadow="2"
     inkscape:zoom="0.35"
     inkscape:cx="-509.88265"
     inkscape:cy="560"
     inkscape:document-units="mm"
     inkscape:current-layer="layer1"
     showgrid="false"
     fit-margin-top="0"
     fit-margin-left="0"
     fit-margin-right="0"
     fit-margin-bottom="0"
     inkscape:window-width="958"
     inkscape:window-height="1008"
     inkscape:window-x="953"
     inkscape:window-y="0"
     inkscape:window-maximized="0" />
  <metadata
     id="metadata837">
    <rdf:RDF>
      <cc:Work
         rdf:about="">
        <dc:format>image/svg+xml</dc:format>
        <dc:type
           rdf:resource="http://purl.org/dc/dcmitype/StillImage" />
        <dc:title />
      </cc:Work>
    </rdf:RDF>
  </metadata>
  <g
     inkscape:label="Calque 1"
     inkscape:groupmode="layer"
     id="layer1"
     transform="translate(0,-233)">
    <path
       inkscape:connector-curvature="0"
       style="fill:#000000;stroke:none;stroke-width:0.21782482"
       d="M 57.101257,257.83097 V 239.80358 H 39.073858 v 5.03089 h 9.474864 l -13.667277,13.66727 c -3.018538,-2.2639 -6.707871,-3.52162 -10.481045,-3.52162 -9.726403,0 -17.6081559,7.88174 -17.6081559,17.60815 0,9.72641 7.8817529,17.60816 17.6081559,17.60816 9.726406,0 17.608156,-7.88174 17.608156,-17.60816 0,-3.77319 -1.257726,-7.46249 -3.521626,-10.56488 l 13.58341,-13.58344 v 9.39101 z m -20.123603,14.75731 c 0,6.95941 -5.617841,12.57726 -12.577254,12.57726 -6.959411,0 -12.577246,-5.61785 -12.577246,-12.57726 0,-6.95941 5.617835,-12.57726 12.577246,-12.57726 6.959413,0 12.577254,5.61785 12.577254,12.57726 z"
       id="path2821-7-4-4-1" />
  </g>
</svg>
