<?xml version="1.0" encoding="UTF-8" standalone="no"?>
<!-- Created with Inkscape (http://www.inkscape.org/) -->

<svg
   xmlns:dc="http://purl.org/dc/elements/1.1/"
   xmlns:cc="http://creativecommons.org/ns#"
   xmlns:rdf="http://www.w3.org/1999/02/22-rdf-syntax-ns#"
   xmlns:svg="http://www.w3.org/2000/svg"
   xmlns="http://www.w3.org/2000/svg"
   xmlns:sodipodi="http://sodipodi.sourceforge.net/DTD/sodipodi-0.dtd"
   xmlns:inkscape="http://www.inkscape.org/namespaces/inkscape"
   width="400"
   height="300"
   id="svg2"
   sodipodi:version="0.32"
   inkscape:version="0.92.4 (5da689c313, 2019-01-14)"
   version="1.0"
   sodipodi:docname="media_manquant.svg"
   inkscape:output_extension="org.inkscape.output.svg.inkscape">
  <defs
     id="defs4">
    <inkscape:perspective
       sodipodi:type="inkscape:persp3d"
       inkscape:vp_x="0 : 200 : 1"
       inkscape:vp_y="0 : 1000 : 0"
       inkscape:vp_z="300 : 200 : 1"
       inkscape:persp3d-origin="150 : 133.33333 : 1"
       id="perspective20" />
  </defs>
  <sodipodi:namedview
     id="base"
     pagecolor="#ffffff"
     bordercolor="#666666"
     borderopacity="1.0"
     inkscape:pageopacity="0.0"
     inkscape:pageshadow="2"
     inkscape:zoom="0.7"
     inkscape:cx="-220.53185"
     inkscape:cy="135.15018"
     inkscape:document-units="px"
     inkscape:current-layer="layer1"
     width="300px"
     height="400px"
     inkscape:window-width="1920"
     inkscape:window-height="1017"
     inkscape:window-x="-8"
     inkscape:window-y="-8"
     showgrid="false"
     inkscape:window-maximized="1" />
  <metadata
     id="metadata7">
    <rdf:RDF>
      <cc:Work
         rdf:about="">
        <dc:format>image/svg+xml</dc:format>
        <dc:type
           rdf:resource="http://purl.org/dc/dcmitype/StillImage" />
        <dc:title />
      </cc:Work>
    </rdf:RDF>
  </metadata>
  <g
     inkscape:label="Capa 1"
     inkscape:groupmode="layer"
     id="layer1">
    <rect
       style="fill:#d4d4d4;fill-opacity:1;stroke:none;stroke-width:2.5;stroke-linecap:round;stroke-linejoin:miter;stroke-miterlimit:4;stroke-dasharray:none;stroke-dashoffset:0;stroke-opacity:1"
       id="rect1872"
       width="280"
       height="380"
       x="-290"
       y="10"
       transform="rotate(-90)" />
    <path
       id="path5023"
       style="fill:#ffffff;fill-opacity:1;fill-rule:nonzero;stroke:none;stroke-width:3.5;stroke-linecap:round;stroke-linejoin:miter;stroke-miterlimit:4;stroke-dashoffset:0;stroke-opacity:1"
       d="m 214.31142,226.85143 c 0,11.98 -10.2,21.72 -22.78,21.72 -12.56,0 -22.78,-9.74 -22.78,-21.72 0,-11.98 10.22,-21.72 22.78,-21.72 12.58,0 22.78,9.74 22.78,21.72 z m -21.24,-178.28 h 2.68 c 15.04,0 27.6,4 37.62,11.94 10.12,7.94 15.2,18.48 15.2,31.62 0,9 -1.86,16.62 -5.56,22.88 -3.62,6.18 -10.1,13.48 -19.38,21.88 -9.2,8.38 -15.16,15.3 -17.94,20.86 -2.78,5.56 -4.18,11.64 -4.18,18.26 0,1.4 0.64,5.12 1.94,11.12 h -26.64 l -2.62,-6.74 c -1.48,-3.9 -2.24,-7.28 -2.24,-10.2 0,-5.56 0.8,-10.88 2.36,-16 1.68,-5.12 4.1,-9.9 7.26,-14.3 3.16,-4.5 9.4,-11.66 18.68,-21.44 9.38,-9.8 14.06,-17.84 14.06,-24.2 0,-12.34 -8.5,-18.56 -25.5,-18.56 -8.26,0 -16.86,3.96 -25.86,11.82 l -14.38,-25.56 c 11.42,-8.5 26.26,-12.98 44.5,-13.38 z"
       inkscape:connector-curvature="0" />
    <g
       id="g844"
       style="fill:#646464;fill-opacity:1">
      <rect
         transform="rotate(-90)"
         y="0"
         x="-300"
         height="50"
         width="25"
         id="rect4716"
         style="fill:#646464;fill-opacity:1;stroke:none;stroke-width:2.5;stroke-linecap:round;stroke-linejoin:miter;stroke-miterlimit:4;stroke-dasharray:none;stroke-dashoffset:0;stroke-opacity:1" />
      <rect
         style="fill:#646464;fill-opacity:1;stroke:none;stroke-width:2.5;stroke-linecap:round;stroke-linejoin:miter;stroke-miterlimit:4;stroke-dasharray:none;stroke-dashoffset:0;stroke-opacity:1"
         id="rect4718"
         width="25"
         height="50"
         x="0"
         y="250" />
    </g>
    <g
       id="g836"
       style="fill:#646464;fill-opacity:1;stroke:none;stroke-opacity:1">
      <rect
         transform="matrix(0,1,1,0,0,0)"
         style="fill:#646464;fill-opacity:1;stroke:none;stroke-width:2.5;stroke-linecap:round;stroke-linejoin:miter;stroke-miterlimit:4;stroke-dasharray:none;stroke-dashoffset:0;stroke-opacity:1"
         id="rect4720"
         width="25"
         height="50"
         x="0"
         y="0" />
      <rect
         y="-50"
         x="0"
         height="50"
         width="25"
         id="rect4722"
         style="fill:#646464;fill-opacity:1;stroke:none;stroke-width:2.5;stroke-linecap:round;stroke-linejoin:miter;stroke-miterlimit:4;stroke-dasharray:none;stroke-dashoffset:0;stroke-opacity:1"
         transform="scale(1,-1)" />
    </g>
    <g
       id="g848"
       style="fill:#646464;fill-opacity:1">
      <rect
         transform="matrix(0,-1,-1,0,0,0)"
         style="fill:#646464;fill-opacity:1;stroke:none;stroke-width:2.5;stroke-linecap:round;stroke-linejoin:miter;stroke-miterlimit:4;stroke-dasharray:none;stroke-dashoffset:0;stroke-opacity:1"
         id="rect4724"
         width="25"
         height="50"
         x="-300"
         y="-400" />
      <rect
         y="250"
         x="-400"
         height="50"
         width="25"
         id="rect4726"
         style="fill:#646464;fill-opacity:1;stroke:none;stroke-width:2.5;stroke-linecap:round;stroke-linejoin:miter;stroke-miterlimit:4;stroke-dasharray:none;stroke-dashoffset:0;stroke-opacity:1"
         transform="scale(-1,1)" />
    </g>
    <g
       id="g840"
       style="fill:#646464;fill-opacity:1">
      <rect
         y="-400"
         x="0"
         height="50"
         width="25"
         id="rect4728"
         style="fill:#646464;fill-opacity:1;stroke:none;stroke-width:2.5;stroke-linecap:round;stroke-linejoin:miter;stroke-miterlimit:4;stroke-dasharray:none;stroke-dashoffset:0;stroke-opacity:1"
         transform="rotate(90)" />
      <rect
         transform="scale(-1)"
         style="fill:#646464;fill-opacity:1;stroke:none;stroke-width:2.5;stroke-linecap:round;stroke-linejoin:miter;stroke-miterlimit:4;stroke-dasharray:none;stroke-dashoffset:0;stroke-opacity:1"
         id="rect4730"
         width="25"
         height="50"
         x="-400"
         y="-50" />
    </g>
  </g>
</svg>
